<svg xmlns="http://www.w3.org/2000/svg" fill="none" viewBox="0 0 547 251"><path fill="#422EFF" d="M151.56 30.544H52.032l-13.224 70.992.696.696c5.336-6.032 12.18-10.44 20.532-13.224 8.584-3.016 17.052-4.524 25.404-4.524 10.904 0 21.228 1.74 30.972 5.22 9.744 3.48 18.212 8.816 25.404 16.008 7.192 6.96 12.876 15.776 17.052 26.448 4.176 10.44 6.264 22.736 6.264 36.888 0 10.44-1.856 20.648-5.568 30.624-3.48 9.744-8.816 18.444-16.008 26.1-7.192 7.656-16.24 13.804-27.144 18.444-10.672 4.408-23.2 6.612-37.584 6.612-10.672 0-20.764-1.508-30.276-4.524-9.28-3.248-17.516-7.772-24.708-13.572-7.192-6.032-12.876-13.456-17.052-22.272-4.176-8.816-6.38-18.792-6.612-29.928h29.58c.464 6.264 1.972 12.18 4.524 17.748a53.833 53.833 0 0 0 10.788 14.268c4.64 3.944 9.976 7.076 16.008 9.396 6.264 2.088 13.108 3.132 20.532 3.132 6.96 0 13.572-1.16 19.836-3.48 6.496-2.552 12.064-6.264 16.704-11.136 4.872-4.872 8.7-10.904 11.484-18.096 2.784-7.424 4.176-16.008 4.176-25.752 0-8.12-1.392-15.544-4.176-22.272-2.552-6.96-6.264-12.876-11.136-17.748-4.872-5.104-10.788-9.048-17.748-11.832-6.728-2.784-14.268-4.176-22.62-4.176-9.744 0-18.444 2.204-26.1 6.612-7.424 4.176-14.036 9.744-19.836 16.704l-25.404-1.392L29.76 4.444h121.8v26.1Zm75.747 95.004c0 9.28.232 19.72.696 31.32.696 11.368 2.552 22.156 5.568 32.364 3.248 9.976 8.352 18.444 15.312 25.404 6.96 6.96 16.704 10.44 29.232 10.44 12.528 0 22.272-3.48 29.232-10.44 6.96-6.96 11.948-15.428 14.964-25.404 3.248-10.208 5.104-20.996 5.568-32.364.696-11.6 1.044-22.04 1.044-31.32 0-6.032-.116-12.644-.348-19.836 0-7.424-.58-14.732-1.74-21.924-.928-7.424-2.436-14.616-4.524-21.576-1.856-6.96-4.756-12.992-8.7-18.096-3.712-5.336-8.468-9.628-14.268-12.876-5.8-3.248-12.876-4.872-21.228-4.872-8.352 0-15.428 1.624-21.228 4.872-5.8 3.248-10.672 7.54-14.616 12.876-3.712 5.104-6.612 11.136-8.7 18.096a208.772 208.772 0 0 0-4.524 21.576 226.517 226.517 0 0 0-1.74 21.924v19.836Zm-31.32.348c0-9.048.232-18.444.696-28.188.464-9.744 1.624-19.256 3.48-28.536 1.856-9.28 4.524-18.096 8.004-26.448 3.48-8.352 8.236-15.66 14.268-21.924 6.032-6.264 13.572-11.252 22.62-14.964 9.28-3.712 20.3-5.568 33.06-5.568 12.76 0 23.664 1.856 32.712 5.568 9.28 3.712 16.936 8.7 22.968 14.964 6.032 6.264 10.788 13.572 14.268 21.924 3.48 8.352 6.148 17.168 8.004 26.448 1.856 9.28 3.016 18.792 3.48 28.536.464 9.744.696 19.14.696 28.188 0 9.048-.232 18.444-.696 28.188-.464 9.744-1.624 19.256-3.48 28.536-1.856 9.28-4.524 18.096-8.004 26.448-3.48 8.12-8.236 15.312-14.268 21.576-6.032 6.264-13.572 11.252-22.62 14.964-9.048 3.48-20.068 5.22-33.06 5.22-12.76 0-23.78-1.74-33.06-5.22-9.048-3.712-16.588-8.7-22.62-14.964-6.032-6.264-10.788-13.456-14.268-21.576-3.48-8.352-6.148-17.168-8.004-26.448-1.856-9.28-3.016-18.792-3.48-28.536a593.177 593.177 0 0 1-.696-28.188Zm194.067-38.28c-.696-12.528.58-24.128 3.828-34.8 3.248-10.672 8.236-19.836 14.964-27.492 6.96-7.888 15.544-14.036 25.752-18.444 10.208-4.408 21.808-6.612 34.8-6.612 10.672 0 20.648 1.624 29.928 4.872 9.512 3.016 17.748 7.54 24.708 13.572 6.96 5.8 12.412 13.108 16.356 21.924 4.176 8.816 6.264 19.024 6.264 30.624 0 10.904-1.74 20.532-5.22 28.884-3.248 8.352-7.656 15.892-13.224 22.62-5.568 6.496-11.948 12.412-19.14 17.748a377.504 377.504 0 0 1-22.272 15.312l-22.968 13.92c-7.656 4.408-14.732 9.164-21.228 14.268-6.264 5.104-11.716 10.672-16.356 16.704-4.408 5.8-7.308 12.528-8.7 20.184h126.672V247H383.094c1.16-14.616 3.712-27.028 7.656-37.236 4.176-10.44 9.396-19.488 15.66-27.144a116.532 116.532 0 0 1 21.228-20.184 303.6 303.6 0 0 1 24.708-16.356c10.44-6.496 19.604-12.412 27.492-17.748 7.888-5.568 14.384-11.136 19.488-16.704 5.336-5.568 9.28-11.6 11.832-18.096 2.784-6.496 4.176-14.036 4.176-22.62 0-6.728-1.276-12.76-3.828-18.096-2.552-5.568-6.032-10.324-10.44-14.268-4.176-3.944-9.164-6.96-14.964-9.048-5.8-2.088-11.948-3.132-18.444-3.132-8.584 0-16.008 1.856-22.272 5.568-6.032 3.48-11.02 8.12-14.964 13.92-3.944 5.8-6.844 12.412-8.7 19.836a86.824 86.824 0 0 0-2.088 21.924h-29.58Z"/></svg>