<svg width="120" height="120" viewBox="0 0 120 120" fill="none" xmlns="http://www.w3.org/2000/svg">
<path d="M14.3761 54.2597C14.3761 54.2597 60.3728 34.7225 76.3252 27.843C82.4405 25.0915 103.179 16.2856 103.179 16.2856C103.179 16.2856 112.751 12.4334 111.953 21.7892C111.687 25.6418 109.56 39.1251 107.433 53.7094C104.242 74.3476 100.786 96.9117 100.786 96.9117C100.786 96.9117 100.254 103.241 95.7343 104.341C91.2145 105.442 83.7697 100.489 82.4405 99.3883C81.3767 98.563 62.4997 86.1799 55.5869 80.1261C53.7257 78.4751 51.5988 75.1732 55.8526 71.3206C65.4243 62.2399 76.8569 50.9578 83.7697 43.8033C86.9604 40.5011 90.1507 32.7963 76.8569 42.152C57.9798 55.6357 39.3685 68.2937 39.3685 68.2937C39.3685 68.2937 35.1143 71.0453 27.1381 68.5687C19.1616 66.0924 9.85587 62.7902 9.85587 62.7902C9.85587 62.7902 3.47521 58.6626 14.3761 54.2597Z" fill="white"/>
</svg>
