<svg width="32" height="32" viewBox="0 0 32 32" fill="none" xmlns="http://www.w3.org/2000/svg">
<g clip-path="url(#clip0_1211_8501)">
<mask id="mask0_1211_8501" style="mask-type:luminance" maskUnits="userSpaceOnUse" x="0" y="0" width="32" height="32">
<path d="M32 0H0V32H32V0Z" fill="white"/>
</mask>
<g mask="url(#mask0_1211_8501)">
<path fill-rule="evenodd" clip-rule="evenodd" d="M15.9999 25.1666C21.0625 25.1666 25.1665 21.0626 25.1665 15.9999C25.1665 10.9373 21.0625 6.83325 15.9999 6.83325C10.9373 6.83325 6.83325 10.9373 6.83325 15.9999C6.83325 21.0626 10.9373 25.1666 15.9999 25.1666ZM15.0832 8.92295C14.5624 9.2132 14.0335 9.75966 13.5603 10.6115C12.9269 11.7516 12.4792 13.3093 12.363 15.0833H15.0832V8.92295ZM16.9165 8.92295V15.0833H19.6368C19.5206 13.3093 19.0729 11.7516 18.4395 10.6115C17.9663 9.75966 17.4374 9.2132 16.9165 8.92295ZM15.0832 16.9166H12.363C12.4792 18.6906 12.9269 20.2483 13.5603 21.3884C14.0335 22.2402 14.5624 22.7867 15.0832 23.0769V16.9166ZM16.9165 23.0769V16.9166H19.6368C19.5206 18.6906 19.0729 20.2483 18.4395 21.3884C17.9663 22.2402 17.4374 22.7867 16.9165 23.0769ZM11.824 9.97085C11.1003 11.3753 10.638 13.1509 10.5262 15.0833H8.72332C8.98724 12.9668 10.153 11.1304 11.824 9.97085ZM10.5262 16.9166H8.72332C8.98724 19.0331 10.153 20.8695 11.824 22.029C11.1003 20.6246 10.638 18.849 10.5262 16.9166ZM20.1757 22.029C20.8995 20.6246 21.3618 18.849 21.4735 16.9166H23.2765C23.0126 19.0331 21.8467 20.8695 20.1757 22.029ZM20.1757 9.97085C21.8467 11.1304 23.0126 12.9668 23.2765 15.0833H21.4735C21.3618 13.1509 20.8995 11.3753 20.1757 9.97085Z" fill="white"/>
</g>
</g>
<defs>
<clipPath id="clip0_1211_8501">
<rect width="32" height="32" fill="white"/>
</clipPath>
</defs>
</svg>
