<svg width="32" height="32" viewBox="0 0 32 32" fill="none" xmlns="http://www.w3.org/2000/svg">
<g clip-path="url(#clip0_1211_8468)">
<path fill-rule="evenodd" clip-rule="evenodd" d="M16 25.1667C21.0626 25.1667 25.1666 21.0627 25.1666 16C25.1666 10.9374 21.0626 6.83337 16 6.83337C10.9374 6.83337 6.83331 10.9374 6.83331 16C6.83331 21.0627 10.9374 25.1667 16 25.1667ZM15.0833 8.92307C14.5625 9.21332 14.0336 9.75978 13.5604 10.6116C12.927 11.7517 12.4793 13.3094 12.3631 15.0834H15.0833V8.92307ZM16.9166 8.92307V15.0834H19.6369C19.5207 13.3094 19.073 11.7517 18.4396 10.6116C17.9664 9.75978 17.4375 9.21332 16.9166 8.92307ZM15.0833 16.9167H12.3631C12.4793 18.6907 12.927 20.2484 13.5604 21.3885C14.0336 22.2403 14.5625 22.7868 15.0833 23.077V16.9167ZM16.9166 23.077V16.9167H19.6369C19.5207 18.6907 19.073 20.2484 18.4396 21.3885C17.9664 22.2403 17.4375 22.7868 16.9166 23.077ZM11.8241 9.97097C11.1004 11.3754 10.6381 13.151 10.5263 15.0834H8.72338C8.9873 12.9669 10.1531 11.1305 11.8241 9.97097ZM10.5263 16.9167H8.72338C8.9873 19.0332 10.1531 20.8696 11.8241 22.0291C11.1004 20.6247 10.6381 18.8491 10.5263 16.9167ZM20.1758 22.0291C20.8996 20.6247 21.3619 18.8491 21.4736 16.9167H23.2766C23.0127 19.0332 21.8468 20.8696 20.1758 22.0291ZM20.1758 9.97097C21.8468 11.1305 23.0127 12.9669 23.2766 15.0834H21.4736C21.3619 13.151 20.8996 11.3754 20.1758 9.97097Z" fill="#1E283C"/>
</g>
<defs>
<clipPath id="clip0_1211_8468">
<rect width="32" height="32" fill="white"/>
</clipPath>
</defs>
</svg>
