<svg width="32" height="32" viewBox="0 0 32 32" fill="none" xmlns="http://www.w3.org/2000/svg">
<path fill-rule="evenodd" clip-rule="evenodd" d="M22.7749 9.86215C23.5222 10.064 24.1095 10.6528 24.308 11.3992C24.6693 12.7538 24.6693 15.5819 24.6693 15.5819C24.6693 15.5819 24.6693 18.4099 24.308 19.7645C24.1068 20.5137 23.5194 21.1026 22.7749 21.3016C21.4238 21.6637 16.0026 21.6637 16.0026 21.6637C16.0026 21.6637 10.5842 21.6637 9.23031 21.3016C8.48304 21.0998 7.8957 20.511 7.69716 19.7645C7.33594 18.4099 7.33594 15.5819 7.33594 15.5819C7.33594 15.5819 7.33594 12.7538 7.69716 11.3992C7.89846 10.65 8.48579 10.0612 9.23031 9.86215C10.5842 9.5 16.0026 9.5 16.0026 9.5C16.0026 9.5 21.4238 9.5 22.7749 9.86215ZM18.7738 15.5819L14.2709 18.1888V12.975L18.7738 15.5819Z" fill="#1E283C"/>
</svg>
