<svg xmlns="http://www.w3.org/2000/svg" fill="none" viewBox="0 0 20 20"><path fill="currentColor" fill-rule="evenodd" d="M2.319 4.239c-.363-1.179.741-2.282 1.92-1.92l12.427 3.824c1.324.407 1.474 2.222.235 2.842l-5.267 2.633a.036.036 0 0 0-.016.016l-2.633 5.267c-.62 1.24-2.435 1.09-2.842-.235L2.319 4.239Zm1.431-.455c0 .001 0 .006.003.014l3.823 12.427a.06.06 0 0 0 .007.016l.002.002c.002.001.01.006.023.007a.046.046 0 0 0 .023-.003l.002-.002s.005-.005.01-.015l2.633-5.267c.149-.297.39-.538.687-.686l5.267-2.634a.055.055 0 0 0 .015-.01l.002-.002a.046.046 0 0 0 .003-.023.045.045 0 0 0-.007-.023l-.002-.001c0-.001-.005-.004-.017-.008L3.798 3.753a.051.051 0 0 0-.014-.003h-.005a.042.042 0 0 0-.017.012.042.042 0 0 0-.011.017l-.001.005Z" clip-rule="evenodd"/></svg>