<svg width="34" height="32" viewBox="0 0 34 32" fill="none" xmlns="http://www.w3.org/2000/svg">
<path d="M20.2348 0.338379V8.63479H16.9704C12.8467 8.63479 9.52417 11.9083 9.52417 15.9723C9.52417 20.0347 12.8467 23.3082 16.9689 23.3082H20.2348V31.6046C27.6795 30.1938 33.237 23.7601 33.237 15.9707C33.237 8.23958 27.681 1.80588 20.2348 0.338379Z" fill="#003791"/>
<path d="M16.9727 25.9033C11.4167 25.9033 6.89015 21.4457 6.89015 15.9724C6.89015 10.4992 11.4152 6.04002 16.9696 6.04002H17.6007V0H16.9711C8.0375 0 0.762817 7.16745 0.762817 15.9709C0.762817 24.8326 8.03749 32 16.9727 32H17.6023V25.9064H16.9727V25.9033Z" fill="#FC5055"/>
</svg>
