<svg width="421" height="240" viewBox="0 0 421 240" fill="none" xmlns="http://www.w3.org/2000/svg">
<path d="M85.2 209V169.4H4.8V151.4L76.8 41H105.6V151.4H127.2V169.4H105.6V209H85.2ZM26.4 151.4H85.2V62.6H84L26.4 151.4Z" fill="#1E283C"/>
<path d="M372.2 209V169.4H291.8V151.4L363.8 41H392.6V151.4H414.2V169.4H392.6V209H372.2ZM313.4 151.4H372.2V62.6H371L313.4 151.4Z" fill="#1E283C"/>
<g clip-path="url(#clip0_1031_7887)">
<rect x="152" y="199" width="137" height="13" fill="#E33700"/>
<path d="M197.589 127.244L213.391 108.644C214.146 107.756 215.552 108.657 215.06 109.714L209.24 122.211C208.831 123.089 209.785 123.977 210.632 123.508L217.459 119.72C218.44 119.176 219.436 120.412 218.696 121.255L200.931 141.476C200.162 142.351 198.772 141.429 199.279 140.381L205.208 128.123C205.604 127.302 204.787 126.422 203.94 126.757L198.719 128.821C197.751 129.204 196.915 128.037 197.589 127.244Z" fill="#E33700"/>
</g>
<rect x="154" y="41" width="110" height="169" rx="22" stroke="#EAEAEE" stroke-width="4"/>
<rect x="193" y="25" width="31" height="10" rx="5" fill="#EAEAEE"/>
<defs>
<clipPath id="clip0_1031_7887">
<rect x="152" y="39" width="114" height="173" rx="24" fill="white"/>
</clipPath>
</defs>
</svg>
