<svg xmlns="http://www.w3.org/2000/svg" xmlns:xlink="http://www.w3.org/1999/xlink"><symbol fill="none" id="icon-arrow-down" viewBox="0 0 24 24"><path stroke="currentColor" stroke-linecap="round" stroke-linejoin="round" stroke-width="2" d="m19 9-7 7-7-7"/></symbol><use xlink:href="#icon-arrow-down" width="24" height="24" y="0"/><view id="icon-arrow-down-view" viewBox="0 0 24 24"/><symbol fill="none" id="icon-arrow-left" viewBox="0 0 20 20"><path stroke="currentColor" d="m10 17-7-7m0 0 7-7m-7 7h14"/></symbol><use xlink:href="#icon-arrow-left" width="20" height="20" y="24"/><view id="icon-arrow-left-view" viewBox="0 24 20 20"/><symbol fill="none" id="icon-arrow-right" viewBox="0 0 15 16"><path stroke="#1E283C" d="m7 1 7 7m0 0-7 7m7-7H0"/></symbol><use xlink:href="#icon-arrow-right" width="15" height="16" y="44"/><view id="icon-arrow-right-view" viewBox="0 44 15 16"/><symbol fill="none" id="icon-blockquote" viewBox="0 0 24 24"><path fill="currentColor" d="M20.725 13.609V21h-7.316v-8.6c0-2.689.739-4.66 2.215-5.914C17.101 5.187 18.98 4.358 21.262 4L22 7.561c-1.521.269-2.707.784-3.557 1.546-.85.761-1.275 1.859-1.275 3.292v1.21h3.557Zm-11.477 0V21H2v-8.6c0-2.689.738-4.66 2.215-5.914C5.69 5.187 7.57 4.358 9.852 4l.739 3.561c-1.522.269-2.707.784-3.557 1.546-.85.761-1.276 1.859-1.276 3.292v1.21h3.49Z"/></symbol><use xlink:href="#icon-blockquote" width="24" height="24" y="60"/><view id="icon-blockquote-view" viewBox="0 60 24 24"/><symbol fill="none" id="icon-calendar" viewBox="0 0 24 24"><path stroke="currentColor" stroke-linecap="round" stroke-linejoin="round" stroke-width="2" d="M4 8h16m-1-4H5a1 1 0 0 0-1 1v14a1 1 0 0 0 1 1h14a1 1 0 0 0 1-1V5a1 1 0 0 0-1-1Zm-3-2v2M8 2v2"/></symbol><use xlink:href="#icon-calendar" width="24" height="24" y="84"/><view id="icon-calendar-view" viewBox="0 84 24 24"/><symbol fill="none" id="icon-caret" viewBox="0 0 14 14"><path fill="CurrentColor" d="M7.8 9.933a1 1 0 0 1-1.6 0L2.2 4.6A1 1 0 0 1 3 3h8a1 1 0 0 1 .8 1.6l-4 5.333Z"/></symbol><use xlink:href="#icon-caret" width="14" height="14" y="108"/><view id="icon-caret-view" viewBox="0 108 14 14"/><symbol fill="none" id="icon-catalog" viewBox="0 0 16 16"><path stroke="currentColor" d="M2.5 2.5h4.434v4.434H2.5zm0 6.566h4.434V13.5H2.5zM9.066 2.5H13.5v4.434H9.066zm0 6.566H13.5V13.5H9.066z"/></symbol><use xlink:href="#icon-catalog" width="16" height="16" y="122"/><view id="icon-catalog-view" viewBox="0 122 16 16"/><symbol fill="none" id="icon-checkmark" viewBox="0 0 14 14"><path stroke="currentColor" stroke-linecap="round" stroke-linejoin="round" stroke-width="2" d="m2.333 7 2.888 2.887L11.408 3.7"/></symbol><use xlink:href="#icon-checkmark" width="14" height="14" y="138"/><view id="icon-checkmark-view" viewBox="0 138 14 14"/><symbol fill="none" id="icon-chevron-down" viewBox="0 0 14 14"><path fill="CurrentColor" d="M7.8 9.933a1 1 0 0 1-1.6 0L2.2 4.6A1 1 0 0 1 3 3h8a1 1 0 0 1 .8 1.6l-4 5.333Z"/></symbol><use xlink:href="#icon-chevron-down" width="14" height="14" y="152"/><view id="icon-chevron-down-view" viewBox="0 152 14 14"/><symbol fill="none" id="icon-chevron-left-sm" viewBox="0 0 24 24"><path stroke="currentColor" stroke-linecap="round" stroke-linejoin="round" stroke-width="2" d="m14 16-4-4 4-4"/></symbol><use xlink:href="#icon-chevron-left-sm" width="24" height="24" y="166"/><view id="icon-chevron-left-sm-view" viewBox="0 166 24 24"/><symbol fill="none" id="icon-chevron-left" viewBox="0 0 12 12"><path fill="currentColor" d="M3.067 5.2a1 1 0 0 0 0 1.6l5.333 4A1 1 0 0 0 10 10V2a1 1 0 0 0-1.6-.8l-5.333 4Z"/></symbol><use xlink:href="#icon-chevron-left" width="12" height="12" y="190"/><view id="icon-chevron-left-view" viewBox="0 190 12 12"/><symbol fill="none" id="icon-chevron-right-sm" viewBox="0 0 24 24"><path stroke="currentColor" stroke-linecap="round" stroke-linejoin="round" stroke-width="2" d="m10 8 4 4-4 4"/></symbol><use xlink:href="#icon-chevron-right-sm" width="24" height="24" y="202"/><view id="icon-chevron-right-sm-view" viewBox="0 202 24 24"/><symbol fill="none" id="icon-chevron-right" viewBox="0 0 12 12"><path fill="currentColor" d="M8.933 5.2a1 1 0 0 1 0 1.6l-5.333 4A1 1 0 0 1 2 10V2a1 1 0 0 1 1.6-.8l5.333 4Z"/></symbol><use xlink:href="#icon-chevron-right" width="12" height="12" y="226"/><view id="icon-chevron-right-view" viewBox="0 226 12 12"/><symbol fill="none" id="icon-clip" viewBox="0 0 24 24"><path stroke="currentColor" stroke-linecap="round" stroke-linejoin="round" stroke-width="2" d="M4.535 11.464 11.43 4.57a5.25 5.25 0 0 1 7.425 7.425L10.9 19.95A3.5 3.5 0 1 1 5.95 15l7.955-7.955A1.75 1.75 0 0 1 16.38 9.52l-6.894 6.894"/></symbol><use xlink:href="#icon-clip" width="24" height="24" y="238"/><view id="icon-clip-view" viewBox="0 238 24 24"/><symbol fill="none" id="icon-close" viewBox="0 0 14 14"><path stroke="currentColor" d="m1 1 6 6m6 6L7 7m0 0-6 6L13 1"/></symbol><use xlink:href="#icon-close" width="14" height="14" y="262"/><view id="icon-close-view" viewBox="0 262 14 14"/><symbol fill="none" id="icon-compare" viewBox="0 0 16 20"><path stroke="currentColor" d="M1.5 20V8m6 12V0m6 20V4"/></symbol><use xlink:href="#icon-compare" width="16" height="20" y="276"/><view id="icon-compare-view" viewBox="0 276 16 20"/><symbol fill="none" id="icon-date-icon" viewBox="0 0 12 12"><path stroke="#1E283C" d="M1.5 2.25h9v9h-9z"/><path stroke="currentColor" d="M3 .25v2m6-2v1.5m-7 3.5h8"/></symbol><use xlink:href="#icon-date-icon" width="12" height="12" y="296"/><view id="icon-date-icon-view" viewBox="0 296 12 12"/><symbol fill="none" id="icon-lens" viewBox="0 0 24 24"><path stroke="currentColor" stroke-linecap="round" stroke-linejoin="round" stroke-width="2" d="M10 17a7 7 0 1 0 0-14 7 7 0 0 0 0 14Zm5-2 6 6"/></symbol><use xlink:href="#icon-lens" width="24" height="24" y="308"/><view id="icon-lens-view" viewBox="0 308 24 24"/><symbol fill="none" id="icon-link-after" viewBox="0 0 6 22"><path stroke="currentColor" d="m.5 1 1.987.327A3 3 0 0 1 5 4.287v13.426a3 3 0 0 1-2.513 2.96L.5 21"/></symbol><use xlink:href="#icon-link-after" width="6" height="22" y="332"/><view id="icon-link-after-view" viewBox="0 332 6 22"/><symbol fill="none" id="icon-link-before" viewBox="0 0 6 22"><path stroke="currentColor" d="m5.5 1-1.987.327A3 3 0 0 0 1 4.287v13.426a3 3 0 0 0 2.513 2.96L5.5 21"/></symbol><use xlink:href="#icon-link-before" width="6" height="22" y="354"/><view id="icon-link-before-view" viewBox="0 354 6 22"/><symbol fill="none" id="icon-menu-mob" viewBox="0 0 24 16"><path stroke="currentColor" stroke-width="2" d="M0 4h24M0 10h14"/></symbol><use xlink:href="#icon-menu-mob" width="24" height="16" y="376"/><view id="icon-menu-mob-view" viewBox="0 376 24 16"/><symbol fill="none" id="icon-menu" viewBox="0 0 20 16"><path stroke="CurrentColor" d="M0 3.5h20m-20 8h12"/></symbol><use xlink:href="#icon-menu" width="20" height="16" y="392"/><view id="icon-menu-view" viewBox="0 392 20 16"/><symbol fill="none" id="icon-minus" viewBox="0 0 20 20"><path stroke="currentColor" stroke-linecap="round" stroke-width="1.5" d="M4 10h12"/></symbol><use xlink:href="#icon-minus" width="20" height="20" y="408"/><view id="icon-minus-view" viewBox="0 408 20 20"/><symbol fill="none" id="icon-no" viewBox="0 0 24 24"><path stroke="CurrentColor" d="M3 12.028 8.5 12l12.5-.028"/></symbol><use xlink:href="#icon-no" width="24" height="24" y="428"/><view id="icon-no-view" viewBox="0 428 24 24"/><symbol fill="none" id="icon-plus" viewBox="0 0 20 20"><path stroke="currentColor" stroke-linecap="round" stroke-linejoin="round" stroke-width="1.5" d="M4 10h6m6 0h-6m0 0V4m0 6v6"/></symbol><use xlink:href="#icon-plus" width="20" height="20" y="452"/><view id="icon-plus-view" viewBox="0 452 20 20"/><symbol fill="none" id="icon-position" viewBox="0 0 20 20"><path fill="currentColor" fill-rule="evenodd" d="M2.319 4.239c-.363-1.179.741-2.282 1.92-1.92l12.427 3.824c1.324.407 1.474 2.222.235 2.842l-5.267 2.633a.036.036 0 0 0-.016.016l-2.633 5.267c-.62 1.24-2.435 1.09-2.842-.235L2.319 4.239Zm1.431-.455c0 .001 0 .006.003.014l3.823 12.427a.06.06 0 0 0 .007.016l.002.002c.002.001.01.006.023.007a.046.046 0 0 0 .023-.003l.002-.002s.005-.005.01-.015l2.633-5.267c.149-.297.39-.538.687-.686l5.267-2.634a.055.055 0 0 0 .015-.01l.002-.002a.046.046 0 0 0 .003-.023.045.045 0 0 0-.007-.023l-.002-.001c0-.001-.005-.004-.017-.008L3.798 3.753a.051.051 0 0 0-.014-.003h-.005a.042.042 0 0 0-.017.012.042.042 0 0 0-.011.017l-.001.005Z" clip-rule="evenodd"/></symbol><use xlink:href="#icon-position" width="20" height="20" y="472"/><view id="icon-position-view" viewBox="0 472 20 20"/><symbol fill="none" id="icon-search" viewBox="0 0 18 18"><circle cx="7.80201" cy="7.80195" r="7.30195" stroke="currentColor"/><path fill="currentColor" d="m12.483 13.586 1.103-1.103L18 16.896 16.896 18z"/></symbol><use xlink:href="#icon-search" width="18" height="18" y="492"/><view id="icon-search-view" viewBox="0 492 18 18"/><symbol fill="none" id="icon-spinner" viewBox="0 0 24 24"><mask id="a" fill="#fff"><path d="M20.002 12c.551 0 1.004.448.943.996a9 9 0 1 1-9.941-9.94c.548-.062.996.391.996.942 0 .552-.45.991-.995 1.07a7.003 7.003 0 1 0 7.927 7.927c.079-.546.518-.995 1.07-.995Z"/></mask><path stroke="#111" stroke-width="4" d="M20.002 12c.551 0 1.004.448.943.996a9 9 0 1 1-9.941-9.94c.548-.062.996.391.996.942 0 .552-.45.991-.995 1.07a7.003 7.003 0 1 0 7.927 7.927c.079-.546.518-.995 1.07-.995Z" mask="url(#a)"/></symbol><use xlink:href="#icon-spinner" width="24" height="24" y="510"/><view id="icon-spinner-view" viewBox="0 510 24 24"/><symbol fill="none" id="icon-time-icon" viewBox="0 0 12 12"><circle cx="6" cy="6" r="5" stroke="currentColor"/><path stroke="currentColor" d="M6 2.5V6l2.5 2"/></symbol><use xlink:href="#icon-time-icon" width="12" height="12" y="534"/><view id="icon-time-icon-view" viewBox="0 534 12 12"/><symbol fill="none" id="icon-update" viewBox="0 0 14 14"><path stroke="currentColor" d="M2.486 5.514a4.514 4.514 0 1 1 9.028 0s0 4.657-4.514 4.514H5.364"/><path stroke="#1E283C" d="m7 7.545-2.182 2.728L7 13"/></symbol><use xlink:href="#icon-update" width="14" height="14" y="546"/><view id="icon-update-view" viewBox="0 546 14 14"/><symbol fill="none" id="icon-views-icon" viewBox="0 0 14 12"><path stroke="currentColor" d="M13 7A6 6 0 0 0 1 7"/><circle cx="7" cy="7" r="3.5" stroke="currentColor"/></symbol><use xlink:href="#icon-views-icon" width="14" height="12" y="560"/><view id="icon-views-icon-view" viewBox="0 560 14 12"/><symbol fill="none" id="icon-yes" viewBox="0 0 24 24"><path stroke="CurrentColor" d="M2.889 11.778 9.11 18l12-12"/></symbol><use xlink:href="#icon-yes" width="24" height="24" y="572"/><view id="icon-yes-view" viewBox="0 572 24 24"/></svg>