<svg width="587" height="342" viewBox="0 0 587 342" fill="none" xmlns="http://www.w3.org/2000/svg">
<rect width="587" height="342" fill="#ECF2F8"/>
<path d="M271.842 166.38H295.016C295.402 166.384 295.77 166.541 296.042 166.815C296.313 167.09 296.465 167.46 296.465 167.846V174.139C296.461 174.522 296.307 174.888 296.036 175.159C295.765 175.43 295.399 175.584 295.016 175.588H271.842C271.455 175.588 271.085 175.436 270.811 175.165C270.536 174.893 270.379 174.525 270.375 174.139V167.88C270.379 167.493 270.535 167.122 270.809 166.848C271.083 166.574 271.454 166.418 271.842 166.414V166.38ZM273.103 179.561C273.095 179.488 273.095 179.413 273.103 179.34C273.136 179.235 273.202 179.143 273.291 179.079C273.38 179.014 273.488 178.98 273.598 178.982C273.682 178.965 273.769 178.965 273.854 178.982L274.877 179.681L280.487 183.381C281.23 183.871 282.104 184.126 282.994 184.114H307.669C308.87 184.123 310.021 184.603 310.872 185.452C311.724 186.3 312.208 187.448 312.222 188.65V192.794C312.222 192.931 312.168 193.063 312.073 193.162C311.977 193.261 311.847 193.318 311.71 193.323C302.365 193.323 292.952 193.323 283.676 193.323C282.782 193.309 281.908 193.05 281.152 192.572L273.956 187.815C273.714 187.691 273.508 187.507 273.358 187.279C273.209 187.052 273.121 186.79 273.103 186.519V179.561ZM273.103 162.407C273.094 162.486 273.094 162.566 273.103 162.645C273.136 162.75 273.202 162.842 273.291 162.906C273.38 162.971 273.488 163.005 273.598 163.003C273.682 163.027 273.77 163.027 273.854 163.003L274.877 162.321L280.487 158.621C281.247 158.091 282.153 157.81 283.079 157.82H307.669C308.869 157.806 310.017 157.325 310.867 156.477C311.718 155.63 312.204 154.484 312.222 153.284V149.123C312.222 148.987 312.168 148.857 312.072 148.761C311.976 148.665 311.846 148.611 311.71 148.611C302.365 148.611 292.952 148.611 283.676 148.611C282.78 148.616 281.905 148.876 281.152 149.362L273.956 154.119C273.714 154.243 273.508 154.427 273.358 154.654C273.209 154.882 273.121 155.144 273.103 155.415V162.407Z" fill="#A2C0DE"/>
<path d="M293.984 131C301.896 130.997 309.632 133.34 316.213 137.734C322.793 142.128 327.923 148.375 330.952 155.685C333.982 162.995 334.775 171.039 333.232 178.8C331.689 186.56 327.879 193.689 322.284 199.284C316.689 204.879 309.56 208.689 301.8 210.232C294.039 211.775 285.995 210.982 278.685 207.952C271.375 204.923 265.128 199.793 260.734 193.213C256.34 186.632 253.997 178.896 254 170.984C254.004 160.381 258.218 150.213 265.716 142.716C273.213 135.218 283.381 131.004 293.984 131Z" stroke="#A2C0DE" stroke-width="4" stroke-miterlimit="22.93"/>
</svg>
