<svg width="587" height="400" viewBox="0 0 587 400" fill="none" xmlns="http://www.w3.org/2000/svg">
<g clip-path="url(#clip0_1134_15869)">
<rect width="587" height="400" fill="#A2C0DE"/>
<rect width="587" height="400" fill="#ECF2F8"/>
<path d="M378.842 184.966H266.65C261.99 184.966 258.173 181.173 258.173 176.488V167.565C258.173 162.904 261.965 159.087 266.65 159.087H293.05C294.264 167.069 301.131 173.216 309.459 173.216H320.837C322.201 173.216 323.316 172.101 323.316 170.737V167.218H336.231C337.594 167.218 338.71 166.102 338.71 164.739C338.71 163.375 337.594 162.26 336.231 162.26H323.316V150.956H336.231C337.594 150.956 338.71 149.841 338.71 148.478C338.71 147.114 337.594 145.999 336.231 145.999H323.316V142.479C323.316 141.115 322.201 140 320.837 140H309.459C301.155 140 294.264 146.147 293.05 154.129H266.65C259.238 154.129 253.215 160.153 253.215 167.565V176.488C253.215 183.9 259.238 189.924 266.65 189.924H378.842C383.502 189.924 387.319 193.716 387.319 198.401V210.052C387.319 214.712 383.527 218.529 378.842 218.529H368.406C368.381 218.257 368.332 218.033 368.307 217.761C367.91 215.009 365.778 212.828 363.027 212.382C354.525 210.944 346.171 208.614 338.115 206.333C310.724 198.649 282.415 190.692 241.936 215.381C241.639 215.555 241.267 215.679 240.92 215.679C216.776 215.827 201.754 220.19 196.276 228.692C192.484 234.567 194.268 240.715 195.657 243.838C196.722 246.218 199.028 247.779 201.655 247.879L218.288 248.573C220.37 255.191 226.567 260 233.855 260C240.672 260 246.497 255.811 248.951 249.862H249.348L320.639 248.374C322.672 255.092 328.893 260 336.256 260C344.014 260 350.484 254.571 352.145 247.308L366.968 244.185C369.67 243.615 371.703 241.384 372 238.657C372.62 232.708 371.827 228.37 369.596 225.817C369.397 225.569 369.125 225.222 369.125 224.825C369.125 224.429 369.075 223.958 369.05 223.462H378.916C386.328 223.462 392.351 217.439 392.351 210.027V198.376C392.351 190.965 386.328 184.941 378.916 184.941L378.842 184.966ZM309.459 144.982H318.358V168.283H309.459C303.039 168.283 297.809 163.053 297.809 156.633C297.809 150.213 303.039 144.982 309.459 144.982ZM233.83 255.067C227.559 255.067 222.477 249.961 222.477 243.714C222.477 237.467 227.584 232.361 233.83 232.361C240.077 232.361 245.183 237.467 245.183 243.714C245.183 249.961 240.077 255.067 233.83 255.067ZM336.231 255.067C329.959 255.067 324.878 249.961 324.878 243.714C324.878 237.467 329.984 232.361 336.231 232.361C342.477 232.361 347.584 237.467 347.584 243.714C347.584 249.961 342.477 255.067 336.231 255.067ZM367.043 238.162C366.993 238.756 366.522 239.252 365.927 239.376L352.492 242.252C351.748 233.948 344.758 227.403 336.256 227.403C327.753 227.403 320.094 234.592 319.945 243.466L250.116 244.954C250.141 244.557 250.191 244.136 250.191 243.714C250.191 234.716 242.878 227.403 233.88 227.403C224.882 227.403 217.619 234.666 217.569 243.615L201.878 242.946C201.135 242.921 200.49 242.5 200.193 241.83C198.978 239.104 198.061 235.088 200.441 231.37C203.539 226.561 213.107 220.785 240.945 220.636C242.209 220.636 243.448 220.264 244.514 219.62C283.134 196.071 309.187 203.359 336.776 211.118C344.981 213.423 353.459 215.803 362.209 217.265C362.853 217.364 363.324 217.86 363.424 218.455C363.845 221.38 364.093 223.636 364.142 225.049C364.192 226.511 364.787 227.899 365.853 229.114C366.299 229.634 367.737 231.816 367.067 238.162H367.043Z" fill="#A2C0DE"/>
</g>
<defs>
<clipPath id="clip0_1134_15869">
<rect width="587" height="400" fill="white"/>
</clipPath>
</defs>
</svg>
