<svg width="300" height="300" viewBox="0 0 300 300" fill="none" xmlns="http://www.w3.org/2000/svg">
<g clip-path="url(#clip0_603_8270)">
<circle cx="150" cy="150" r="141" fill="#1E283C" stroke="white" stroke-width="18"/>
<path d="M81.0114 134.688H160.203C161.522 134.703 162.782 135.239 163.709 136.178C164.637 137.118 165.157 138.385 165.156 139.706V161.238C165.141 162.549 164.615 163.802 163.689 164.729C162.763 165.656 161.512 166.183 160.203 166.198H81.0114C79.6923 166.198 78.4264 165.678 77.4883 164.749C76.5501 163.821 76.0153 162.559 76 161.238V139.823C76.0151 138.497 76.548 137.229 77.4845 136.291C78.4211 135.353 79.687 134.82 81.0114 134.805V134.688ZM85.3235 179.794C85.2956 179.542 85.2956 179.288 85.3235 179.036C85.4363 178.677 85.6615 178.364 85.9659 178.143C86.2703 177.922 86.6376 177.806 87.0134 177.81C87.3022 177.755 87.5988 177.755 87.8875 177.81L91.3839 180.203L110.555 192.865C113.096 194.541 116.08 195.415 119.121 195.374H203.441C207.548 195.405 211.479 197.048 214.389 199.951C217.299 202.853 218.954 206.784 219 210.896V225.076C219 225.546 218.818 225.997 218.492 226.335C218.165 226.672 217.721 226.87 217.252 226.885C185.319 226.885 153.152 226.885 121.452 226.885C118.396 226.84 115.412 225.951 112.828 224.317L88.2372 208.037C87.4093 207.614 86.7054 206.983 86.1947 206.205C85.6839 205.428 85.3837 204.531 85.3235 203.602V179.794ZM85.3235 121.092C85.2912 121.363 85.2912 121.637 85.3235 121.909C85.4363 122.268 85.6615 122.581 85.9659 122.802C86.2703 123.022 86.6376 123.139 87.0134 123.134C87.2994 123.214 87.6016 123.214 87.8875 123.134L91.3839 120.8L110.555 108.138C113.151 106.323 116.247 105.364 119.413 105.395H203.441C207.544 105.35 211.466 103.702 214.373 100.802C217.279 97.9028 218.939 93.9811 219 89.8733V75.6353C219 75.1711 218.816 74.7258 218.488 74.3975C218.16 74.0692 217.715 73.8848 217.252 73.8848C185.319 73.8848 153.152 73.8848 121.452 73.8848C118.392 73.9016 115.4 74.7923 112.828 76.4523L88.2372 92.7326C87.4093 93.1555 86.7054 93.7866 86.1947 94.5641C85.6839 95.3416 85.3837 96.2387 85.3235 97.1674V121.092Z" fill="white"/>
</g>
<defs>
<clipPath id="clip0_603_8270">
<rect width="300" height="300" fill="white"/>
</clipPath>
</defs>
</svg>
