<svg width="32" height="32" viewBox="0 0 32 32" fill="none" xmlns="http://www.w3.org/2000/svg">
<g clip-path="url(#clip0_1211_8493)">
<mask id="mask0_1211_8493" style="mask-type:luminance" maskUnits="userSpaceOnUse" x="0" y="0" width="32" height="32">
<path d="M32 0H0V32H32V0Z" fill="white"/>
</mask>
<g mask="url(#mask0_1211_8493)">
<path d="M8.00137 16.097C8.00137 16.097 15.2252 13.0238 17.7306 11.9416C18.691 11.5088 21.948 10.1236 21.948 10.1236C21.948 10.1236 23.4512 9.51761 23.3259 10.9893C23.2841 11.5953 22.9501 13.7163 22.6161 16.0105C22.115 19.2569 21.5721 22.8063 21.5721 22.8063C21.5721 22.8063 21.4886 23.8019 20.7788 23.9751C20.0689 24.1482 18.8997 23.3691 18.691 23.1959C18.5239 23.0661 15.5592 21.1182 14.4736 20.1659C14.1813 19.9062 13.8472 19.3868 14.5153 18.7808C16.0186 17.3523 17.8141 15.5776 18.8997 14.4522C19.4008 13.9328 19.9019 12.7208 17.8141 14.1924C14.8494 16.3135 11.9265 18.3046 11.9265 18.3046C11.9265 18.3046 11.2583 18.7375 10.0057 18.3479C8.75294 17.9584 7.29147 17.4389 7.29147 17.4389C7.29147 17.4389 6.28938 16.7896 8.00137 16.097Z" fill="white"/>
</g>
</g>
<defs>
<clipPath id="clip0_1211_8493">
<rect width="32" height="32" fill="white"/>
</clipPath>
</defs>
</svg>
