<svg width="32" height="32" viewBox="0 0 32 32" fill="none" xmlns="http://www.w3.org/2000/svg">
<path fill-rule="evenodd" clip-rule="evenodd" d="M24.2715 12.3203C24.392 11.9437 24.2715 11.667 23.6981 11.667H21.8018C21.3196 11.667 21.0974 11.906 20.9768 12.1696C20.9768 12.1696 20.0125 14.3726 18.6464 15.8036C18.2044 16.2178 18.0035 16.3496 17.7624 16.3496C17.6419 16.3496 17.4674 16.2178 17.4674 15.8412V12.3203C17.4674 11.8684 17.3275 11.667 16.9257 11.667H13.9458C13.6445 11.667 13.4633 11.8767 13.4633 12.0755C13.4633 12.5039 14.1463 12.6027 14.2167 13.8077V16.4249C14.2167 16.9987 14.1061 17.1028 13.8651 17.1028C13.2222 17.1028 11.6585 14.89 10.7311 12.3579C10.5493 11.8658 10.367 11.667 9.88237 11.667H7.98609C7.4443 11.667 7.33594 11.906 7.33594 12.1696C7.33594 12.6404 7.97882 14.9751 10.3293 18.063C11.8963 20.1718 14.104 21.3149 16.113 21.3149C17.3183 21.3149 17.4675 21.061 17.4675 20.6237V19.0299C17.4675 18.5221 17.5817 18.4208 17.9634 18.4208C18.2446 18.4208 18.7268 18.5526 19.8518 19.5693C21.1375 20.7743 21.3495 21.3149 22.0727 21.3149H23.969C24.5108 21.3149 24.7817 21.061 24.6254 20.56C24.4544 20.0606 23.8405 19.3361 23.026 18.4772C22.584 17.9877 21.921 17.4605 21.7201 17.1969C21.4389 16.858 21.5192 16.7073 21.7201 16.4061C21.7201 16.4061 24.0304 13.3558 24.2715 12.3203Z" fill="#1E283C"/>
</svg>
