<?xml version="1.0" standalone="no"?>
<!DOCTYPE svg PUBLIC "-//W3C//DTD SVG 20010904//EN"
 "http://www.w3.org/TR/2001/REC-SVG-20010904/DTD/svg10.dtd">
<svg version="1.0" xmlns="http://www.w3.org/2000/svg"
 width="700.000000pt" height="700.000000pt" viewBox="0 0 700.000000 700.000000"
 preserveAspectRatio="xMidYMid meet">
<metadata>
Created by potrace 1.14, written by Peter Selinger 2001-2017
</metadata>
<g transform="translate(0.000000,700.000000) scale(0.100000,-0.100000)"
fill="#000000" stroke="none">
<path d="M3240 6570 c-727 -69 -1358 -357 -1881 -857 -499 -479 -816 -1109
-915 -1823 -24 -174 -25 -594 -1 -773 94 -698 391 -1304 881 -1792 213 -212
430 -377 682 -518 637 -356 1396 -471 2120 -322 1195 246 2137 1187 2388 2381
47 229 60 360 60 634 0 274 -13 405 -60 634 -64 304 -179 612 -325 869 -489
859 -1330 1427 -2300 1552 -147 19 -515 27 -649 15z m1854 -1306 c23 -23 23
-376 0 -455 -35 -121 -124 -213 -241 -249 -64 -20 -90 -20 -1097 -20 -959 -1
-1035 -2 -1082 -18 -28 -10 -179 -102 -336 -205 -156 -103 -293 -187 -304
-187 -43 0 -44 10 -44 322 0 253 2 304 16 329 11 23 98 85 323 234 169 111
323 211 342 221 79 42 96 42 1276 43 1016 1 1133 -1 1147 -15z m-1308 -1420
c62 -29 64 -42 64 -354 0 -236 -3 -286 -16 -311 -31 -61 6 -59 -1021 -59 -873
0 -940 1 -973 18 -65 32 -70 55 -70 338 0 270 2 297 29 332 38 52 26 51 1024
52 840 0 932 -2 963 -16z m-1454 -1180 c156 -103 301 -194 323 -203 36 -14
155 -17 1110 -21 l1070 -5 57 -27 c79 -37 142 -98 181 -177 l32 -65 3 -214 c3
-156 1 -217 -8 -227 -11 -13 -168 -15 -1169 -15 -1013 0 -1164 2 -1209 15 -79
24 -691 432 -714 477 -16 29 -18 67 -18 329 0 306 2 319 42 319 9 0 144 -84
300 -186z"/>
</g>
</svg>
