<svg width="14" height="14" viewBox="0 0 14 14" fill="none" xmlns="http://www.w3.org/2000/svg">
<path d="M4.067 7.8C3.9428 7.70685 3.842 7.58607 3.77257 7.44721C3.70314 7.30836 3.667 7.15525 3.667 7C3.667 6.84476 3.70314 6.69164 3.77257 6.55279C3.842 6.41393 3.9428 6.29315 4.067 6.2L9.4 2.2C9.54857 2.08857 9.72523 2.02072 9.91019 2.00404C10.0952 1.98736 10.2811 2.02252 10.4472 2.10557C10.6133 2.18863 10.753 2.31629 10.8507 2.47427C10.9483 2.63225 11 2.81429 11 3L11 11C11 11.1857 10.9483 11.3678 10.8507 11.5257C10.753 11.6837 10.6133 11.8114 10.4472 11.8944C10.2811 11.9775 10.0952 12.0126 9.91019 11.996C9.72523 11.9793 9.54857 11.9114 9.4 11.8L4.067 7.8Z" fill="black"/>
</svg>
