<svg width="94" height="66" viewBox="0 0 94 66" fill="none" xmlns="http://www.w3.org/2000/svg">
<rect x="31.5996" y="15.4" width="39.2" height="35" fill="white"/>
<path fill-rule="evenodd" clip-rule="evenodd" d="M83.4659 1.95003C87.4897 3.03668 90.6522 6.20734 91.7213 10.2265C93.6664 17.5205 93.6664 32.7485 93.6664 32.7485C93.6664 32.7485 93.6664 47.9766 91.7213 55.2706C90.6374 59.3046 87.4748 62.4753 83.4659 63.547C76.1905 65.4971 46.9997 65.4971 46.9997 65.4971C46.9997 65.4971 17.8237 65.4971 10.5335 63.547C6.5097 62.4604 3.34711 59.2897 2.27807 55.2706C0.333008 47.9766 0.333008 32.7485 0.333008 32.7485C0.333008 32.7485 0.333008 17.5205 2.27807 10.2265C3.36196 6.19245 6.52455 3.0218 10.5335 1.95003C17.8237 6.09989e-07 46.9997 0 46.9997 0C46.9997 0 76.1905 6.09989e-07 83.4659 1.95003ZM61.9217 32.7485L37.6753 46.7857V18.7113L61.9217 32.7485Z" fill="#FA0000"/>
</svg>
