<svg width="423" height="240" viewBox="0 0 423 240" fill="none" xmlns="http://www.w3.org/2000/svg">
<path d="M69.6 211.4C55.36 211.4 42.88 207.24 32.16 198.92C21.6 190.6 14.88 179.16 12 164.6H32.4C34.8 173.08 39.36 180.04 46.08 185.48C52.96 190.76 60.8 193.4 69.6 193.4C81.44 193.4 90.8 189.88 97.68 182.84C104.56 175.8 108 166.52 108 155C108 143.32 104.56 133.8 97.68 126.44C90.8 119.08 81.44 115.4 69.6 115.4C55.68 115.4 44.08 121.4 34.8 133.4H15.6L24 41H118.8V59H42L37.2 109.4H38.4C47.52 101.4 59.12 97.4 73.2 97.4C89.2 97.4 102.4 102.92 112.8 113.96C123.2 125 128.4 138.68 128.4 155C128.4 171.96 123.04 185.64 112.32 196.04C101.76 206.28 87.52 211.4 69.6 211.4Z" fill="#1E283C"/>
<path d="M297.8 209V191L373.4 114.2C383 104.6 387.8 95.4 387.8 86.6C387.8 77 384.84 69.64 378.92 64.52C373.16 59.24 364.92 56.6 354.2 56.6C344.44 56.6 336.28 59.4 329.72 65C323.32 70.44 319.48 77.24 318.2 85.4H297.8C300.36 71.16 306.44 59.8 316.04 51.32C325.8 42.84 338.52 38.6 354.2 38.6C370.84 38.6 383.96 43 393.56 51.8C403.32 60.44 408.2 72.04 408.2 86.6C408.2 99.4 401.4 112.6 387.8 126.2L324.2 191H410.6V209H297.8Z" fill="#1E283C"/>
<g clip-path="url(#clip0_1031_14016)">
<rect x="152" y="199" width="137" height="13" fill="#E33700"/>
<path d="M197.589 127.244L213.391 108.644C214.146 107.756 215.552 108.657 215.06 109.714L209.24 122.211C208.831 123.089 209.785 123.977 210.632 123.508L217.459 119.72C218.44 119.176 219.436 120.412 218.696 121.255L200.931 141.476C200.162 142.351 198.772 141.429 199.279 140.381L205.208 128.123C205.604 127.302 204.787 126.422 203.94 126.757L198.719 128.821C197.751 129.204 196.915 128.037 197.589 127.244Z" fill="#E33700"/>
</g>
<rect x="154" y="41" width="110" height="169" rx="22" stroke="#EAEAEE" stroke-width="4"/>
<rect x="193" y="25" width="31" height="10" rx="5" fill="#EAEAEE"/>
<defs>
<clipPath id="clip0_1031_14016">
<rect x="152" y="39" width="114" height="173" rx="24" fill="white"/>
</clipPath>
</defs>
</svg>
