<svg width="122" height="36" viewBox="0 0 122 36" fill="none" xmlns="http://www.w3.org/2000/svg">
<path d="M22.2929 18.2706C22.3026 17.5194 22.5021 16.7829 22.873 16.1295C23.2438 15.4762 23.7738 14.9272 24.4138 14.5338C24.0073 13.9531 23.4709 13.4753 22.8474 13.1382C22.2238 12.8011 21.5303 12.614 20.8218 12.5919C19.3105 12.4332 17.8453 13.4962 17.0752 13.4962C16.2901 13.4962 15.1044 12.6076 13.8275 12.6339C13.0016 12.6606 12.1967 12.9007 11.4912 13.331C10.7857 13.7612 10.2037 14.3669 9.8019 15.089C8.0613 18.1025 9.35963 22.5315 11.027 24.9674C11.8612 26.1602 12.8361 27.4927 14.1118 27.4454C15.3602 27.3936 15.8264 26.6494 17.3333 26.6494C18.8262 26.6494 19.2636 27.4454 20.5652 27.4154C21.9047 27.3936 22.7487 26.2172 23.5537 25.0131C24.153 24.1632 24.6143 23.2239 24.9202 22.2299C24.142 21.9007 23.4779 21.3498 23.0107 20.6457C22.5435 19.9416 22.2938 19.1156 22.2929 18.2706Z" fill="white"/>
<path d="M19.8345 10.9898C20.5648 10.113 20.9247 8.98606 20.8375 7.84825C19.7217 7.96545 18.6909 8.49876 17.9507 9.3419C17.5888 9.7538 17.3116 10.233 17.135 10.7521C16.9583 11.2712 16.8858 11.82 16.9214 12.3672C17.4795 12.3729 18.0316 12.2519 18.5362 12.0134C19.0408 11.7748 19.4847 11.4248 19.8345 10.9898Z" fill="white"/>
<path d="M38.0722 24.4256H33.8121L32.7891 27.4465H30.9847L35.0198 16.2703H36.8945L40.9295 27.4465H39.0944L38.0722 24.4256ZM34.2533 23.0317H37.6301L35.9655 18.1292H35.9189L34.2533 23.0317Z" fill="white"/>
<path d="M49.6439 23.3727C49.6439 25.9049 48.2886 27.5317 46.2434 27.5317C45.7253 27.5588 45.2101 27.4395 44.7566 27.1873C44.3032 26.9352 43.93 26.5605 43.6796 26.1061H43.6409V30.142H41.9684V19.2981H43.5873V20.6534H43.6181C43.88 20.2012 44.2595 19.8284 44.7164 19.5747C45.1732 19.3211 45.6903 19.196 46.2126 19.2128C48.2807 19.2129 49.6439 20.8476 49.6439 23.3727ZM47.9247 23.3727C47.9247 21.723 47.0722 20.6384 45.7714 20.6384C44.4935 20.6384 43.6339 21.7459 43.6339 23.3727C43.6339 25.0145 44.4935 26.114 45.7714 26.114C47.0722 26.114 47.9247 25.0374 47.9247 23.3727Z" fill="white"/>
<path d="M58.6122 23.3727C58.6122 25.9049 57.257 27.5317 55.2117 27.5317C54.6937 27.5588 54.1784 27.4395 53.725 27.1873C53.2716 26.9352 52.8983 26.5605 52.648 26.1061H52.6093V30.142H50.9367V19.2981H52.5557V20.6534H52.5864C52.8483 20.2012 53.2278 19.8284 53.6847 19.5747C54.1416 19.3211 54.6587 19.196 55.181 19.2129C57.249 19.2129 58.6122 20.8476 58.6122 23.3727ZM56.8931 23.3727C56.8931 21.723 56.0405 20.6384 54.7398 20.6384C53.4618 20.6384 52.6023 21.7459 52.6023 23.3727C52.6023 25.0145 53.4618 26.114 54.7398 26.114C56.0406 26.114 56.8931 25.0374 56.8931 23.3727Z" fill="white"/>
<path d="M64.5396 24.3325C64.6635 25.4408 65.7402 26.1685 67.2115 26.1685C68.6212 26.1685 69.6355 25.4407 69.6355 24.4414C69.6355 23.5739 69.0238 23.0545 67.5753 22.6986L66.1269 22.3496C64.0746 21.8539 63.1219 20.8942 63.1219 19.3367C63.1219 17.4084 64.8024 16.0839 67.1886 16.0839C69.5502 16.0839 71.1692 17.4084 71.2237 19.3367H69.5353C69.4342 18.2214 68.5122 17.5482 67.1649 17.5482C65.8175 17.5482 64.8955 18.2293 64.8955 19.2207C64.8955 20.0109 65.4844 20.4758 66.9249 20.8317L68.1563 21.1341C70.4493 21.6764 71.4021 22.5975 71.4021 24.2322C71.4021 26.3231 69.7365 27.6327 67.0875 27.6327C64.609 27.6327 62.9356 26.3539 62.8274 24.3324L64.5396 24.3325Z" fill="white"/>
<path d="M75.0117 17.3698V19.2981H76.5613V20.6226H75.0117V25.1147C75.0117 25.8126 75.322 26.1378 76.0032 26.1378C76.1871 26.1345 76.3708 26.1216 76.5533 26.0991V27.4157C76.2471 27.4729 75.9358 27.4988 75.6243 27.493C73.9746 27.493 73.3313 26.8734 73.3313 25.2931V20.6226H72.1465V19.2981H73.3313V17.3698H75.0117Z" fill="white"/>
<path d="M77.4587 23.3727C77.4587 20.809 78.9686 19.1979 81.3232 19.1979C83.6857 19.1979 85.1886 20.8089 85.1886 23.3727C85.1886 25.9435 83.6936 27.5475 81.3232 27.5475C78.9536 27.5475 77.4587 25.9435 77.4587 23.3727ZM83.4844 23.3727C83.4844 21.614 82.6785 20.576 81.3232 20.576C79.9679 20.576 79.1629 21.6219 79.1629 23.3727C79.1629 25.1384 79.9679 26.1685 81.3232 26.1685C82.6785 26.1685 83.4844 25.1384 83.4844 23.3727Z" fill="white"/>
<path d="M86.5676 19.2981H88.1628V20.685H88.2015C88.3095 20.2518 88.5632 19.869 88.9201 19.601C89.2771 19.3329 89.7154 19.1958 90.1615 19.2128C90.3542 19.2122 90.5464 19.2331 90.7345 19.2752V20.8397C90.4912 20.7653 90.2374 20.7312 89.983 20.7386C89.7401 20.7288 89.4978 20.7716 89.273 20.8642C89.0481 20.9568 88.8459 21.097 88.6804 21.2751C88.5148 21.4532 88.3897 21.665 88.3137 21.896C88.2377 22.127 88.2126 22.3717 88.2402 22.6133V27.4464H86.5676L86.5676 19.2981Z" fill="white"/>
<path d="M98.446 25.0532C98.221 26.5324 96.7805 27.5475 94.9374 27.5475C92.567 27.5475 91.0957 25.9593 91.0957 23.4114C91.0957 20.8555 92.5749 19.1979 94.8671 19.1979C97.1215 19.1979 98.5392 20.7465 98.5392 23.2171V23.7902H92.7841V23.8913C92.7576 24.1911 92.7951 24.4932 92.8943 24.7775C92.9934 25.0618 93.1519 25.3217 93.3593 25.54C93.5666 25.7582 93.818 25.9299 94.0967 26.0436C94.3755 26.1573 94.6753 26.2103 94.9761 26.1993C95.3714 26.2363 95.768 26.1448 96.107 25.9383C96.4461 25.7318 96.7094 25.4213 96.8579 25.0532L98.446 25.0532ZM92.792 22.6212H96.8658C96.8808 22.3516 96.8399 22.0818 96.7457 21.8287C96.6515 21.5756 96.506 21.3447 96.3183 21.1505C96.1306 20.9563 95.9048 20.803 95.6551 20.7002C95.4054 20.5974 95.1371 20.5474 94.8671 20.5532C94.5948 20.5516 94.3248 20.6039 94.0727 20.7072C93.8207 20.8104 93.5916 20.9626 93.3987 21.1549C93.2057 21.3471 93.0528 21.5757 92.9487 21.8274C92.8446 22.0791 92.7913 22.3489 92.792 22.6212Z" fill="white"/>
<path d="M34.0437 7.85786C34.3944 7.8327 34.7462 7.88567 35.0739 8.01296C35.4016 8.14025 35.697 8.33868 35.9387 8.59395C36.1805 8.84921 36.3625 9.15494 36.4718 9.48908C36.5811 9.82323 36.6148 10.1775 36.5706 10.5262C36.5706 12.2418 35.6433 13.228 34.0437 13.228H32.104V7.85786H34.0437ZM32.9381 12.4686H33.9506C34.2011 12.4835 34.4519 12.4425 34.6846 12.3483C34.9172 12.2542 35.126 12.1093 35.2957 11.9243C35.4653 11.7393 35.5916 11.5188 35.6652 11.2788C35.7389 11.0389 35.7581 10.7855 35.7216 10.5372C35.7555 10.2898 35.7343 10.038 35.6595 9.79982C35.5847 9.56162 35.4581 9.34292 35.2889 9.15938C35.1196 8.97584 34.9118 8.83202 34.6805 8.7382C34.4491 8.64439 34.1998 8.60292 33.9506 8.61675H32.9381V12.4686Z" fill="white"/>
<path d="M37.5128 11.1999C37.4873 10.9335 37.5178 10.6648 37.6022 10.411C37.6867 10.1571 37.8232 9.9237 38.0032 9.72571C38.1831 9.52773 38.4025 9.36954 38.6472 9.26129C38.8918 9.15304 39.1564 9.09713 39.4239 9.09713C39.6915 9.09713 39.9561 9.15304 40.2007 9.26129C40.4454 9.36954 40.6648 9.52773 40.8447 9.72571C41.0246 9.9237 41.1612 10.1571 41.2457 10.411C41.3301 10.6648 41.3606 10.9335 41.3351 11.1999C41.3611 11.4665 41.331 11.7356 41.2468 11.9898C41.1625 12.2441 41.026 12.4779 40.846 12.6763C40.666 12.8747 40.4465 13.0332 40.2016 13.1417C39.9567 13.2502 39.6918 13.3062 39.4239 13.3062C39.1561 13.3062 38.8912 13.2502 38.6463 13.1417C38.4014 13.0332 38.1819 12.8747 38.0019 12.6763C37.8219 12.4779 37.6854 12.2441 37.6011 11.9898C37.5169 11.7356 37.4868 11.4665 37.5128 11.1999ZM40.5125 11.1999C40.5125 10.3214 40.1178 9.80768 39.4253 9.80768C38.7301 9.80768 38.339 10.3214 38.339 11.1999C38.339 12.0854 38.7301 12.5951 39.4253 12.5951C40.1179 12.5951 40.5125 12.0818 40.5125 11.1999Z" fill="white"/>
<path d="M46.4161 13.2279H45.5864L44.7488 10.2432H44.6855L43.8514 13.2279H43.0297L41.9126 9.1753H42.7238L43.4498 12.2677H43.5096L44.3428 9.1753H45.11L45.9432 12.2677H46.0065L46.729 9.1753H47.5288L46.4161 13.2279Z" fill="white"/>
<path d="M48.4683 9.1753H49.2383V9.8191H49.298C49.3994 9.58787 49.5704 9.39403 49.7872 9.26461C50.004 9.13518 50.2557 9.07662 50.5074 9.09707C50.7046 9.08225 50.9026 9.11198 51.0867 9.18406C51.2709 9.25615 51.4364 9.36874 51.5711 9.5135C51.7059 9.65826 51.8063 9.83148 51.865 10.0203C51.9236 10.2092 51.9391 10.4088 51.9101 10.6044V13.2279H51.1103V10.8052C51.1103 10.154 50.8273 9.83009 50.2358 9.83009C50.1019 9.82385 49.9683 9.84664 49.844 9.89688C49.7198 9.94713 49.6079 10.0237 49.516 10.1212C49.424 10.2187 49.3543 10.335 49.3115 10.462C49.2688 10.589 49.254 10.7238 49.2681 10.8571V13.2279H48.4683L48.4683 9.1753Z" fill="white"/>
<path d="M53.1845 7.59326H53.9844V13.2279H53.1845V7.59326Z" fill="white"/>
<path d="M55.0962 11.1999C55.0707 10.9335 55.1012 10.6648 55.1857 10.4109C55.2701 10.1571 55.4067 9.92364 55.5867 9.72565C55.7667 9.52766 55.986 9.36947 56.2307 9.26122C56.4754 9.15297 56.74 9.09705 57.0076 9.09705C57.2751 9.09705 57.5397 9.15297 57.7844 9.26122C58.0291 9.36947 58.2485 9.52766 58.4284 9.72565C58.6084 9.92364 58.745 10.1571 58.8295 10.4109C58.9139 10.6648 58.9444 10.9335 58.919 11.1999C58.9449 11.4665 58.9148 11.7356 58.8305 11.9898C58.7463 12.2441 58.6097 12.4779 58.4297 12.6763C58.2497 12.8747 58.0302 13.0332 57.7853 13.1417C57.5403 13.2501 57.2754 13.3062 57.0076 13.3062C56.7397 13.3062 56.4748 13.2501 56.2299 13.1417C55.985 13.0332 55.7654 12.8747 55.5854 12.6763C55.4054 12.4779 55.2689 12.2441 55.1846 11.9898C55.1004 11.7356 55.0702 11.4665 55.0962 11.1999ZM58.0959 11.1999C58.0959 10.3214 57.7012 9.80768 57.0087 9.80768C56.3134 9.80768 55.9224 10.3214 55.9224 11.1999C55.9224 12.0854 56.3135 12.5951 57.0087 12.5951C57.7012 12.5951 58.0959 12.0818 58.0959 11.1999Z" fill="white"/>
<path d="M59.761 12.0819C59.761 11.3524 60.3041 10.9318 61.2683 10.872L62.366 10.8088V10.459C62.366 10.0309 62.083 9.78923 61.5364 9.78923C61.0899 9.78923 60.7805 9.95314 60.6917 10.2397H59.9174C59.9991 9.54357 60.6539 9.09709 61.5733 9.09709C62.5893 9.09709 63.1623 9.60289 63.1623 10.459V13.2279H62.3924V12.6584H62.3291C62.2007 12.8627 62.0203 13.0293 61.8065 13.141C61.5926 13.2528 61.3529 13.3059 61.1118 13.2947C60.9417 13.3124 60.7698 13.2943 60.6071 13.2414C60.4444 13.1886 60.2946 13.1023 60.1673 12.988C60.04 12.8737 59.9381 12.7341 59.8681 12.578C59.7981 12.4219 59.7616 12.2529 59.761 12.0819ZM62.366 11.7356V11.3967L61.3764 11.46C60.8183 11.4974 60.5652 11.6872 60.5652 12.0445C60.5652 12.4092 60.8816 12.6215 61.3167 12.6215C61.4441 12.6344 61.5729 12.6215 61.6953 12.5836C61.8177 12.5458 61.9313 12.4836 62.0292 12.401C62.1271 12.3183 62.2074 12.2168 62.2652 12.1025C62.3231 11.9882 62.3574 11.8634 62.366 11.7356Z" fill="white"/>
<path d="M64.2135 11.1999C64.2135 9.9193 64.8718 9.10807 65.8957 9.10807C66.149 9.0964 66.4004 9.15706 66.6204 9.28297C66.8405 9.40887 67.0202 9.59482 67.1385 9.81907H67.1983V7.59326H67.9981V13.2279H67.2317V12.5876H67.1684C67.0409 12.8104 66.855 12.994 66.6307 13.1186C66.4063 13.2433 66.1522 13.3042 65.8957 13.2947C64.8648 13.2948 64.2135 12.4835 64.2135 11.1999ZM65.0397 11.1999C65.0397 12.0594 65.4449 12.5767 66.1225 12.5767C66.7966 12.5767 67.2132 12.052 67.2132 11.2034C67.2132 10.3588 66.7922 9.82658 66.1225 9.82658C65.4492 9.82658 65.0397 10.3473 65.0397 11.1999Z" fill="white"/>
<path d="M71.3072 11.1999C71.2817 10.9335 71.3121 10.6648 71.3966 10.411C71.4811 10.1571 71.6176 9.9237 71.7976 9.72571C71.9775 9.52773 72.1969 9.36954 72.4415 9.26129C72.6862 9.15304 72.9508 9.09713 73.2183 9.09713C73.4859 9.09713 73.7505 9.15304 73.9951 9.26129C74.2398 9.36954 74.4591 9.52773 74.6391 9.72571C74.819 9.9237 74.9556 10.1571 75.0401 10.411C75.1245 10.6648 75.155 10.9335 75.1295 11.1999C75.1555 11.4665 75.1254 11.7356 75.0411 11.9898C74.9569 12.2441 74.8204 12.4779 74.6404 12.6763C74.4604 12.8747 74.2409 13.0332 73.996 13.1417C73.7511 13.2502 73.4862 13.3062 73.2183 13.3062C72.9505 13.3062 72.6856 13.2502 72.4407 13.1417C72.1958 13.0332 71.9762 12.8747 71.7963 12.6763C71.6163 12.4779 71.4798 12.2441 71.3955 11.9898C71.3113 11.7356 71.2812 11.4665 71.3072 11.1999ZM74.3069 11.1999C74.3069 10.3214 73.9122 9.80768 73.2197 9.80768C72.5244 9.80768 72.1334 10.3214 72.1334 11.1999C72.1334 12.0854 72.5245 12.5951 73.2197 12.5951C73.9122 12.5951 74.3069 12.0818 74.3069 11.1999Z" fill="white"/>
<path d="M76.2027 9.1753H76.9726V9.8191H77.0324C77.1338 9.58787 77.3047 9.39403 77.5215 9.26461C77.7383 9.13518 77.9901 9.07662 78.2417 9.09707C78.4389 9.08225 78.6369 9.11198 78.8211 9.18406C79.0052 9.25615 79.1708 9.36874 79.3055 9.5135C79.4402 9.65826 79.5406 9.83148 79.5993 10.0203C79.658 10.2092 79.6734 10.4088 79.6445 10.6044V13.2279H78.8447V10.8052C78.8447 10.154 78.5617 9.83009 77.9702 9.83009C77.8363 9.82385 77.7026 9.84664 77.5784 9.89688C77.4541 9.94713 77.3422 10.0237 77.2503 10.1212C77.1584 10.2187 77.0886 10.335 77.0459 10.462C77.0031 10.589 76.9883 10.7238 77.0025 10.8571V13.2279H76.2027V9.1753Z" fill="white"/>
<path d="M84.1638 8.16632V9.19376H85.0418V9.86744H84.1638V11.9513C84.1638 12.3758 84.3387 12.5617 84.7368 12.5617C84.8388 12.5614 84.9406 12.5552 85.0418 12.5433V13.2095C84.8982 13.2352 84.7527 13.2488 84.6068 13.2503C83.7173 13.2503 83.3631 12.9375 83.3631 12.1561V9.86741H82.7198V9.19372H83.3631V8.16632H84.1638Z" fill="white"/>
<path d="M86.1343 7.59326H86.9271V9.82657H86.9904C87.0967 9.59318 87.2724 9.39825 87.4935 9.26833C87.7146 9.13842 87.9704 9.07985 88.2261 9.10059C88.4222 9.08992 88.6183 9.12267 88.8004 9.1965C88.9824 9.27034 89.1459 9.38345 89.2793 9.52775C89.4126 9.67206 89.5124 9.844 89.5716 10.0313C89.6308 10.2186 89.6479 10.4167 89.6218 10.6114V13.2279H88.8212V10.8087C88.8212 10.1614 88.5197 9.83359 87.9546 9.83359C87.8171 9.82231 87.6788 9.84121 87.5494 9.88896C87.42 9.93671 87.3026 10.0122 87.2054 10.11C87.1082 10.2079 87.0336 10.3258 86.9867 10.4555C86.9399 10.5852 86.9219 10.7236 86.9342 10.861V13.2279H86.1343L86.1343 7.59326Z" fill="white"/>
<path d="M94.2853 12.1337C94.1766 12.5041 93.9412 12.8245 93.6202 13.0388C93.2991 13.2531 92.913 13.3478 92.5292 13.3062C92.2622 13.3132 91.9969 13.2621 91.7516 13.1563C91.5064 13.0505 91.2871 12.8926 91.109 12.6936C90.9309 12.4946 90.7982 12.2592 90.7202 12.0037C90.6422 11.7483 90.6207 11.4789 90.6572 11.2144C90.6216 10.949 90.6435 10.679 90.7213 10.4228C90.7992 10.1666 90.9311 9.93013 91.1083 9.72936C91.2855 9.5286 91.5038 9.36824 91.7483 9.25916C91.9928 9.15007 92.2579 9.0948 92.5257 9.09708C93.6534 9.09708 94.3336 9.86748 94.3336 11.1401V11.4192H91.4719V11.464C91.4594 11.6127 91.4781 11.7624 91.5268 11.9035C91.5755 12.0445 91.6532 12.1739 91.7548 12.2832C91.8564 12.3925 91.9797 12.4794 92.1169 12.5382C92.254 12.5971 92.402 12.6266 92.5512 12.625C92.7425 12.6479 92.9363 12.6135 93.108 12.526C93.2797 12.4385 93.4215 12.302 93.5154 12.1337L94.2853 12.1337ZM91.4719 10.8276H93.5189C93.5289 10.6916 93.5105 10.555 93.4646 10.4266C93.4187 10.2981 93.3465 10.1807 93.2526 10.0818C93.1586 9.98294 93.045 9.90482 92.9191 9.85246C92.7931 9.8001 92.6576 9.77467 92.5213 9.7778C92.383 9.77606 92.2457 9.80203 92.1176 9.85418C91.9894 9.90633 91.873 9.9836 91.7752 10.0814C91.6774 10.1793 91.6002 10.2957 91.5481 10.4239C91.496 10.552 91.4701 10.6893 91.4719 10.8276Z" fill="white"/>
</svg>
