<svg width="347" height="240" viewBox="0 0 347 240" fill="none" xmlns="http://www.w3.org/2000/svg">
<path d="M6.14264 45.5173C3.44446 21.6767 21.975 0.5 45.9544 0.5H200.446C224.425 0.5 242.956 21.6767 240.257 45.5173C236.028 82.8837 230.967 135.966 230.967 176C230.967 216.034 236.028 269.116 240.257 306.483C242.956 330.323 224.425 351.5 200.446 351.5H45.9544C21.975 351.5 3.44446 330.323 6.14265 306.483C10.3716 269.116 15.4333 216.034 15.4333 176C15.4333 135.966 10.3716 82.8837 6.14264 45.5173Z" stroke="#1E283C"/>
<path d="M111.97 119.567L127.772 100.968C128.15 100.524 128.853 100.974 128.607 101.502L122.787 114C122.173 115.317 123.604 116.65 124.874 115.945L131.702 112.157C132.192 111.885 132.69 112.503 132.32 112.925L114.555 133.146C114.171 133.584 113.476 133.123 113.729 132.599L119.658 120.34C120.253 119.11 119.027 117.79 117.756 118.292L112.535 120.356C112.051 120.547 111.633 119.964 111.97 119.567Z" stroke="#1E283C"/>
<path opacity="0.3" d="M206.231 139.133C206.231 117.35 197.577 96.4593 182.174 81.0563C166.771 65.6533 145.88 57 124.097 57C102.314 57 81.4232 65.6533 66.0202 81.0563C50.6172 96.4593 41.9639 117.35 41.9639 139.133" stroke="#1E283C"/>
<path d="M165.164 67.5375C152.678 60.3288 138.515 56.5337 124.097 56.5337C109.68 56.5337 95.5164 60.3288 83.0305 67.5375C70.5447 74.7462 60.1763 85.1145 52.9676 97.6004C45.7589 110.086 41.9639 124.25 41.9639 138.667" stroke="#1E283C"/>
<path d="M235.031 104.532C259.386 104.816 279.523 105.668 297.468 117.173C311.825 126.378 324.814 141.936 329.513 148.564L334.925 156.234L332.647 159.501L335.922 159.359L340.195 165.609L338.486 168.308L347.031 191.318M232.898 135.781C239.165 136.349 254.571 137.144 261.293 135.781C269.696 134.076 284.508 129.957 295.475 138.337C306.441 146.718 308.293 156.518 310.856 159.501C312.907 161.888 317.977 166.367 320.256 168.308L323.674 166.745L324.244 167.74L322.82 169.586L328.801 174.842L330.51 174.131L347.031 215.465" stroke="#1E283C"/>
</svg>
