<svg width="122" height="36" viewBox="0 0 122 36" fill="none" xmlns="http://www.w3.org/2000/svg">
<path d="M61.498 19.5768C59.3752 19.5768 57.645 21.186 57.645 23.4045C57.645 25.6086 59.3752 27.2322 61.498 27.2322C63.6208 27.2322 65.3511 25.6086 65.3511 23.4045C65.3511 21.186 63.6208 19.5768 61.498 19.5768ZM61.498 25.7247C60.3346 25.7247 59.331 24.768 59.331 23.4045C59.331 22.0266 60.3346 21.0843 61.498 21.0843C62.6614 21.0843 63.6642 22.0266 63.6642 23.4045C63.6642 24.7671 62.6614 25.7247 61.498 25.7247ZM53.0915 19.5768C50.9687 19.5768 49.2385 21.186 49.2385 23.4045C49.2385 25.6086 50.9687 27.2322 53.0915 27.2322C55.2144 27.2322 56.9446 25.6086 56.9446 23.4045C56.9455 21.186 55.2144 19.5768 53.0915 19.5768ZM53.0915 25.7247C51.9281 25.7247 50.9254 24.768 50.9254 23.4045C50.9254 22.0266 51.929 21.0843 53.0915 21.0843C54.2549 21.0843 55.2577 22.0266 55.2577 23.4045C55.2586 24.7671 54.2549 25.7247 53.0915 25.7247ZM43.0929 22.3749H46.9902C46.8738 23.2884 46.5687 23.9553 46.103 24.4197C45.5362 24.9849 44.6489 25.6086 43.0929 25.6086C40.6939 25.6086 38.8184 23.6799 38.8184 21.2877C38.8184 18.8955 40.6939 16.9668 43.0929 16.9668C44.3872 16.9668 45.3322 17.4744 46.0299 18.1269L47.1788 16.9812C46.205 16.0533 44.9107 15.3423 43.0929 15.3423C39.8067 15.3423 37.0439 18.0099 37.0439 21.2868C37.0439 24.5637 39.8067 27.2313 43.0929 27.2313C44.8665 27.2313 46.205 26.6517 47.2519 25.5636C48.3278 24.4908 48.6627 22.9824 48.6627 21.7647C48.6627 21.3876 48.6338 21.0393 48.5751 20.7495H43.0929V22.3749ZM83.9863 22.0122C83.6668 21.1563 82.692 19.5759 80.7001 19.5759C78.7226 19.5759 77.0799 21.1275 77.0799 23.4036C77.0799 25.5492 78.7081 27.2313 80.8896 27.2313C82.6487 27.2313 83.6668 26.1585 84.0883 25.5348L82.7796 24.6645C82.3436 25.3026 81.747 25.7229 80.8896 25.7229C80.0313 25.7229 79.4211 25.3314 79.0285 24.5628L84.1614 22.446L83.9863 22.0122ZM78.7514 23.2884C78.7081 21.8097 79.9004 21.0555 80.7578 21.0555C81.4266 21.0555 81.9934 21.3885 82.183 21.8673L78.7514 23.2884ZM74.578 27H76.2649V15.7491H74.578V27ZM71.8152 20.4318H71.7575C71.3793 19.9827 70.6527 19.5759 69.7366 19.5759C67.8169 19.5759 66.0578 21.258 66.0578 23.418C66.0578 25.5636 67.8169 27.2313 69.7366 27.2313C70.6527 27.2313 71.3793 26.8254 71.7575 26.361H71.8152V26.9118C71.8152 28.3761 71.03 29.1591 69.7646 29.1591C68.7321 29.1591 68.0922 28.4193 67.8304 27.7965L66.3619 28.4058C66.7834 29.421 67.9035 30.6675 69.7646 30.6675C71.7421 30.6675 73.4146 29.5074 73.4146 26.6805V19.8081H71.8152V20.4318ZM69.8819 25.7247C68.7185 25.7247 67.7447 24.7536 67.7447 23.4189C67.7447 22.0707 68.7185 21.0843 69.8819 21.0843C71.0309 21.0843 71.9317 22.0698 71.9317 23.4189C71.9317 24.7527 71.0309 25.7247 69.8819 25.7247ZM91.8874 15.7491H87.852V27H89.5353V22.7376H91.8865C93.753 22.7376 95.5879 21.3903 95.5879 19.2438C95.5879 17.0973 93.7539 15.7491 91.8874 15.7491ZM91.9307 21.1716H89.5353V17.3151H91.9307C93.1897 17.3151 93.9046 18.3546 93.9046 19.2438C93.9046 20.115 93.1897 21.1716 91.9307 21.1716ZM102.339 19.5561C101.12 19.5561 99.857 20.0916 99.3344 21.2787L100.83 21.9015C101.149 21.2787 101.744 21.0762 102.369 21.0762C103.24 21.0762 104.125 21.5973 104.14 22.5234V22.6395C103.835 22.4658 103.181 22.2048 102.383 22.2048C100.772 22.2048 99.1313 23.0877 99.1313 24.7383C99.1313 26.244 100.453 27.2133 101.933 27.2133C103.066 27.2133 103.689 26.7066 104.081 26.1135H104.139V26.982H105.764V22.6683C105.764 20.6703 104.27 19.5561 102.339 19.5561ZM102.135 25.722C101.584 25.722 100.814 25.4466 100.814 24.7671C100.814 23.8986 101.772 23.5656 102.599 23.5656C103.339 23.5656 103.687 23.7249 104.138 23.9418C104.008 24.984 103.108 25.722 102.135 25.722ZM111.687 19.8018L109.756 24.6798H109.699L107.696 19.8018H105.882L108.886 26.6193L107.173 30.4119H108.93L113.561 19.8018H111.687ZM96.5175 27H98.2017V15.7491H96.5175V27Z" fill="white"/>
<path d="M42.7599 8.81194H40.1352V9.46084H42.1019C42.0487 9.98824 41.8366 10.4031 41.4818 10.7046C41.1262 11.0061 40.6722 11.1573 40.1352 11.1573C39.5449 11.1573 39.0458 10.9539 38.6379 10.5462C38.2371 10.1313 38.0322 9.61924 38.0322 9.00004C38.0322 8.38174 38.2371 7.86874 38.6379 7.45384C39.0458 7.04704 39.5449 6.84364 40.1352 6.84364C40.4376 6.84364 40.7255 6.89584 40.99 7.00924C41.2544 7.12264 41.4665 7.28104 41.6326 7.48444L42.1317 6.98674C41.9052 6.73024 41.6172 6.53404 41.2625 6.39094C40.9069 6.24784 40.536 6.17944 40.1352 6.17944C39.3482 6.17944 38.683 6.45124 38.1388 6.99394C37.5936 7.53754 37.3219 8.20804 37.3219 9.00004C37.3219 9.79204 37.5936 10.4634 38.1388 11.0061C38.683 11.5497 39.3482 11.8206 40.1352 11.8206C40.9593 11.8206 41.6172 11.5569 42.1245 11.0214C42.5703 10.5768 42.7978 9.97294 42.7978 9.21874C42.7978 9.09094 42.7824 8.95504 42.7599 8.81194Z" fill="white"/>
<path d="M43.7961 6.30005V11.7H46.9577V11.0367H44.4919V9.32495H46.715V8.67605H44.4919V6.96425H46.9577V6.30005H43.7961Z" fill="white"/>
<path d="M51.4037 6.96425V6.30005H47.6825V6.96425H49.1952V11.7H49.891V6.96425H51.4037Z" fill="white"/>
<path d="M54.7928 6.30005H54.0969V11.7H54.7928V6.30005Z" fill="white"/>
<path d="M59.3914 6.96425V6.30005H55.6701V6.96425H57.1828V11.7H57.8787V6.96425H59.3914Z" fill="white"/>
<path d="M66.4332 7.00204C65.8962 6.45124 65.2382 6.17944 64.4512 6.17944C63.6651 6.17944 63.0062 6.45124 62.4692 6.99394C61.9321 7.52944 61.6677 8.20084 61.6677 9.00004C61.6677 9.80014 61.9321 10.4706 62.4692 11.0061C63.0062 11.5497 63.6651 11.8206 64.4512 11.8206C65.2301 11.8206 65.8962 11.5497 66.4332 11.0061C66.9703 10.4706 67.2347 9.80014 67.2347 9.00004C67.2347 8.20804 66.9703 7.53754 66.4332 7.00204ZM62.9692 7.45384C63.3699 7.04704 63.8609 6.84364 64.4512 6.84364C65.0415 6.84364 65.5325 7.04704 65.926 7.45384C66.3267 7.85434 66.5235 8.37454 66.5235 9.00004C66.5235 9.62644 66.3267 10.1466 65.926 10.5462C65.5325 10.9539 65.0415 11.1573 64.4512 11.1573C63.8609 11.1573 63.3699 10.9539 62.9692 10.5462C62.5757 10.1394 62.3789 9.62644 62.3789 9.00004C62.3789 8.37454 62.5757 7.86154 62.9692 7.45384Z" fill="white"/>
<path d="M68.9063 8.33675L68.8765 7.29545H68.9063L71.66 11.7H72.3857V6.30005H71.6898V9.46085L71.7205 10.5012H71.6898L69.0579 6.30005H68.2113V11.7H68.9063V8.33675Z" fill="white"/>
<path d="M18.3375 16.9845L9.08487 27.0891C9.08574 27.0909 9.08574 27.0926 9.08661 27.0944C9.36991 28.1925 10.3441 29 11.4999 29C11.9623 29 12.3959 28.8712 12.7679 28.6459L12.7974 28.628L23.212 22.4445L18.3375 16.9845Z" fill="#EB4335"/>
<path d="M27.699 15.2641L27.6904 15.2578L23.1939 12.5752L18.1283 17.2135L23.2113 22.4428L27.6843 19.7879C28.4681 19.3524 29 18.502 29 17.5211C29 16.5473 28.4751 15.7004 27.699 15.2641Z" fill="#FABC13"/>
<path d="M9.08517 7.9109C9.02955 8.12193 9 8.3428 9 8.57262V26.4274C9 26.6572 9.02838 26.8789 9.08487 27.0891L18.6559 17.2429L9.08517 7.9109Z" fill="#547DBF"/>
<path d="M18.4053 17.4996L23.1946 12.5734L12.7913 6.36752C12.4133 6.13413 11.9727 6 11.4999 6C10.3441 6 9.36904 6.80926 9.08487 7.90825L9.08517 7.9109L18.4053 17.4996Z" fill="#30A851"/>
</svg>
