<svg style="display: none;" aria-hidden="true" xmlns="http://www.w3.org/2000/svg" xmlns:xlink="http://www.w3.org/1999/xlink"><symbol fill="none" viewBox="0 0 24 24" id="svg-arrow-down" xmlns="http://www.w3.org/2000/svg"><path stroke="currentColor" stroke-linecap="round" stroke-linejoin="round" stroke-width="2" d="m19 9-7 7-7-7"/></symbol><symbol fill="none" viewBox="0 0 20 20" id="svg-arrow-left" xmlns="http://www.w3.org/2000/svg"><path stroke="currentColor" d="m10 17-7-7m0 0 7-7m-7 7h14"/></symbol><symbol fill="none" viewBox="0 0 20 20" id="svg-arrow-right" xmlns="http://www.w3.org/2000/svg"><path stroke="currentColor" d="m10 3 7 7m0 0-7 7m7-7H3"/></symbol><symbol fill="none" viewBox="0 0 24 24" id="svg-blockquote" xmlns="http://www.w3.org/2000/svg"><path fill="currentColor" d="M20.725 13.609V21h-7.316v-8.6c0-2.689.739-4.66 2.215-5.914C17.101 5.187 18.98 4.358 21.262 4L22 7.561c-1.521.269-2.707.784-3.557 1.546-.85.761-1.275 1.859-1.275 3.292v1.21h3.557Zm-11.477 0V21H2v-8.6c0-2.689.738-4.66 2.215-5.914C5.69 5.187 7.57 4.358 9.852 4l.739 3.561c-1.522.269-2.707.784-3.557 1.546-.85.761-1.276 1.859-1.276 3.292v1.21h3.49Z"/></symbol><symbol fill="none" viewBox="0 0 24 24" id="svg-calendar" xmlns="http://www.w3.org/2000/svg"><path stroke="currentColor" stroke-linecap="round" stroke-linejoin="round" stroke-width="2" d="M4 8h16m-1-4H5a1 1 0 0 0-1 1v14a1 1 0 0 0 1 1h14a1 1 0 0 0 1-1V5a1 1 0 0 0-1-1Zm-3-2v2M8 2v2"/></symbol><symbol fill="none" viewBox="0 0 12 12" id="svg-catalog" xmlns="http://www.w3.org/2000/svg"><g stroke="currentColor" clip-path="url(#afa)"><path d="M1.2 1H5v3.8H1.2zm0 5.8H5v3.8H1.2zM7 1h3.8v3.8H7zm0 5.8h3.8v3.8H7z"/></g><defs><clipPath id="afa"><path fill="#fff" d="M.7.5h11v11H.7z"/></clipPath></defs></symbol><symbol fill="none" viewBox="0 0 14 14" id="svg-checkmark" xmlns="http://www.w3.org/2000/svg"><path stroke="currentColor" stroke-linecap="round" stroke-linejoin="round" stroke-width="2" d="m2.333 7 2.888 2.887L11.408 3.7"/></symbol><symbol fill="none" viewBox="0 0 20 20" id="svg-chevron-down" xmlns="http://www.w3.org/2000/svg"><path fill="currentColor" d="M10.8 12.933a1 1 0 0 1-1.6 0L5.2 7.6A1 1 0 0 1 6 6h8a1 1 0 0 1 .8 1.6l-4 5.333Z"/></symbol><symbol fill="none" viewBox="0 0 8 10" id="svg-chevron-left" xmlns="http://www.w3.org/2000/svg"><path fill="currentColor" d="M1.067 4.2a1 1 0 0 0 0 1.6l5.333 4A1 1 0 0 0 8 9V1A1 1 0 0 0 6.4.2l-5.333 4Z"/></symbol><symbol fill="none" viewBox="0 0 24 24" id="svg-chevron-left-sm" xmlns="http://www.w3.org/2000/svg"><path stroke="currentColor" stroke-linecap="round" stroke-linejoin="round" stroke-width="2" d="m14 16-4-4 4-4"/></symbol><symbol fill="none" viewBox="0 0 8 10" id="svg-chevron-right" xmlns="http://www.w3.org/2000/svg"><path fill="currentColor" d="M6.933 4.2a1 1 0 0 1 0 1.6L1.6 9.8A1 1 0 0 1 0 9V1A1 1 0 0 1 1.6.2l5.333 4Z"/></symbol><symbol fill="none" viewBox="0 0 24 24" id="svg-chevron-right-sm" xmlns="http://www.w3.org/2000/svg"><path stroke="currentColor" stroke-linecap="round" stroke-linejoin="round" stroke-width="2" d="m10 8 4 4-4 4"/></symbol><symbol fill="none" viewBox="0 0 24 24" id="svg-clip" xmlns="http://www.w3.org/2000/svg"><path stroke="currentColor" stroke-linecap="round" stroke-linejoin="round" stroke-width="2" d="M4.535 11.464 11.43 4.57a5.25 5.25 0 0 1 7.425 7.425L10.9 19.95A3.5 3.5 0 1 1 5.95 15l7.955-7.955A1.75 1.75 0 0 1 16.38 9.52l-6.894 6.894"/></symbol><symbol fill="none" viewBox="0 0 20 20" id="svg-close" xmlns="http://www.w3.org/2000/svg"><path stroke="currentColor" d="m1 1 9 9m9 9-9-9m0 0-9 9L19 1"/></symbol><symbol fill="none" viewBox="0 0 16 20" id="svg-compare" xmlns="http://www.w3.org/2000/svg"><path stroke="currentColor" d="M1.5 20V8m6 12V0m6 20V4"/></symbol><symbol fill="none" viewBox="0 0 12 12" id="svg-date-icon" xmlns="http://www.w3.org/2000/svg"><path stroke="#1E283C" d="M1.5 2.25h9v9h-9z"/><path stroke="currentColor" d="M3 .25v2m6-2v1.5m-7 3.5h8"/></symbol><symbol fill="none" viewBox="0 0 24 24" id="svg-lens" xmlns="http://www.w3.org/2000/svg"><path stroke="currentColor" stroke-linecap="round" stroke-linejoin="round" stroke-width="2" d="M10 17a7 7 0 1 0 0-14 7 7 0 0 0 0 14Zm5-2 6 6"/></symbol><symbol fill="none" viewBox="0 0 6 22" id="svg-link-after" xmlns="http://www.w3.org/2000/svg"><path stroke="currentColor" d="m.5 1 1.987.327A3 3 0 0 1 5 4.287v13.426a3 3 0 0 1-2.513 2.96L.5 21"/></symbol><symbol fill="none" viewBox="0 0 6 22" id="svg-link-before" xmlns="http://www.w3.org/2000/svg"><path stroke="currentColor" d="m5.5 1-1.987.327A3 3 0 0 0 1 4.287v13.426a3 3 0 0 0 2.513 2.96L5.5 21"/></symbol><symbol fill="none" viewBox="0 0 34 16" id="svg-menu" xmlns="http://www.w3.org/2000/svg"><path stroke="currentColor" d="M0 3.5h34m-34 8h20"/></symbol><symbol fill="none" viewBox="0 0 20 20" id="svg-minus" xmlns="http://www.w3.org/2000/svg"><path stroke="currentColor" stroke-linecap="round" stroke-width="1.5" d="M4 10h12"/></symbol><symbol fill="none" viewBox="0 0 20 20" id="svg-plus" xmlns="http://www.w3.org/2000/svg"><path stroke="currentColor" stroke-linecap="round" stroke-linejoin="round" stroke-width="1.5" d="M4 10h6m6 0h-6m0 0V4m0 6v6"/></symbol><symbol fill="none" viewBox="0 0 20 20" id="svg-position" xmlns="http://www.w3.org/2000/svg"><path fill="currentColor" fill-rule="evenodd" d="M2.319 4.239c-.363-1.179.741-2.282 1.92-1.92l12.427 3.824c1.324.407 1.474 2.222.235 2.842l-5.267 2.633a.036.036 0 0 0-.016.016l-2.633 5.267c-.62 1.24-2.435 1.09-2.842-.235L2.319 4.239Zm1.431-.455c0 .001 0 .006.003.014l3.823 12.427a.06.06 0 0 0 .007.016l.002.002c.002.001.01.006.023.007a.046.046 0 0 0 .023-.003l.002-.002s.005-.005.01-.015l2.633-5.267c.149-.297.39-.538.687-.686l5.267-2.634a.055.055 0 0 0 .015-.01l.002-.002a.046.046 0 0 0 .003-.023.045.045 0 0 0-.007-.023l-.002-.001c0-.001-.005-.004-.017-.008L3.798 3.753a.051.051 0 0 0-.014-.003h-.005a.042.042 0 0 0-.017.012.042.042 0 0 0-.011.017l-.001.005Z" clip-rule="evenodd"/></symbol><symbol fill="none" viewBox="0 0 18 18" id="svg-search" xmlns="http://www.w3.org/2000/svg"><circle cx="7.802" cy="7.802" r="7.302" stroke="currentColor"/><path fill="currentColor" d="m12.483 13.586 1.103-1.103L18 16.896 16.896 18z"/></symbol><symbol fill="none" viewBox="0 0 24 24" id="svg-spinner" xmlns="http://www.w3.org/2000/svg"><mask id="aya" fill="#fff"><path d="M20.002 12c.551 0 1.004.448.943.996a9 9 0 1 1-9.941-9.94c.548-.062.996.391.996.942 0 .552-.45.991-.995 1.07a7.003 7.003 0 1 0 7.927 7.927c.079-.546.518-.995 1.07-.995Z"/></mask><path stroke="#111" stroke-width="4" d="M20.002 12c.551 0 1.004.448.943.996a9 9 0 1 1-9.941-9.94c.548-.062.996.391.996.942 0 .552-.45.991-.995 1.07a7.003 7.003 0 1 0 7.927 7.927c.079-.546.518-.995 1.07-.995Z" mask="url(#aya)"/></symbol><symbol fill="none" viewBox="0 0 12 12" id="svg-time-icon" xmlns="http://www.w3.org/2000/svg"><circle cx="6" cy="6" r="5" stroke="currentColor"/><path stroke="currentColor" d="M6 2.5V6l2.5 2"/></symbol><symbol fill="none" viewBox="0 0 14 12" id="svg-views-icon" xmlns="http://www.w3.org/2000/svg"><path stroke="currentColor" d="M13 7A6 6 0 0 0 1 7"/><circle cx="7" cy="7" r="3.5" stroke="currentColor"/></symbol></svg>