<svg width="142" height="12" viewBox="0 0 142 12" fill="none" xmlns="http://www.w3.org/2000/svg">
	<path d="M10.5725 -0.169434C10.5906 -0.169452 10.6085 -0.165796 10.6252 -0.158685C10.6419 -0.151574 10.6569 -0.141156 10.6694 -0.128063C10.682 -0.114969 10.6917 -0.0994708 10.6981 -0.0825057C10.7044 -0.0655406 10.7073 -0.0474607 10.7065 -0.0293602V0.579653C10.7049 0.779446 10.6248 0.970604 10.4835 1.11188C10.3422 1.25316 10.1511 1.33324 9.95128 1.33483H2.2838C2.18045 1.33316 2.07783 1.35238 1.9821 1.39135C1.88637 1.43032 1.79949 1.48823 1.72669 1.5616C1.65389 1.63497 1.59666 1.72229 1.55844 1.81833C1.52021 1.91436 1.50179 2.01712 1.50426 2.12046V4.9341H6.86358C6.96428 4.9357 7.06031 4.97682 7.13095 5.0486C7.2016 5.12039 7.24118 5.21706 7.24117 5.31778V6.06686C7.24117 6.11645 7.2314 6.16555 7.21242 6.21136C7.19345 6.25717 7.16564 6.2988 7.13057 6.33386C7.09551 6.36892 7.05389 6.39673 7.00808 6.41571C6.96226 6.43468 6.91317 6.44445 6.86358 6.44445H1.50426V9.25809C1.50346 9.36017 1.52287 9.4614 1.56138 9.55595C1.59989 9.65049 1.65674 9.73647 1.72864 9.80894C1.80054 9.88141 1.88607 9.93893 1.98031 9.97818C2.07455 10.0174 2.17562 10.0376 2.27771 10.0376H9.95128C10.0504 10.0376 10.1486 10.0572 10.2403 10.0951C10.3319 10.1331 10.4151 10.1887 10.4853 10.2588C10.5554 10.3289 10.611 10.4122 10.649 10.5038C10.6869 10.5954 10.7065 10.6936 10.7065 10.7928V11.4018C10.7065 11.4379 10.6926 11.4727 10.6676 11.4988C10.6426 11.5249 10.6086 11.5403 10.5725 11.5419H2.27771C1.97809 11.5427 1.68135 11.4833 1.40515 11.3672C1.12895 11.2511 0.878914 11.0806 0.669914 10.8659C0.457512 10.6542 0.288997 10.4027 0.174036 10.1257C0.0590748 9.84879 -6.80196e-05 9.55186 5.87059e-08 9.252V2.12046C0.00190375 1.51463 0.240062 0.93344 0.663827 0.500481C0.875495 0.288079 1.12702 0.119564 1.40397 0.00460272C1.68092 -0.110358 1.97784 -0.169502 2.27771 -0.169434H10.5725Z" fill="#1E283C"/>
	<path d="M12.3813 0.214245C12.3813 0.112487 12.4218 0.0148968 12.4937 -0.0570569C12.5657 -0.129011 12.6633 -0.169434 12.765 -0.169434H13.5141C13.6148 -0.167835 13.7108 -0.126707 13.7815 -0.0549259C13.8521 0.0168552 13.8917 0.113533 13.8917 0.214245V8.28976C13.8919 8.73158 14.0589 9.15703 14.3592 9.48107C14.6596 9.80512 15.0711 10.0039 15.5117 10.0376H22.3387C22.5395 10.0392 22.7316 10.1201 22.8731 10.2627C23.0145 10.4053 23.0939 10.598 23.0939 10.7989V11.4079C23.0939 11.426 23.0902 11.444 23.0831 11.4606C23.076 11.4773 23.0656 11.4923 23.0525 11.5049C23.0394 11.5174 23.0239 11.5271 23.007 11.5335C22.99 11.5399 22.9719 11.5427 22.9538 11.5419H15.6457C15.2144 11.5537 14.7855 11.4747 14.3868 11.31C13.9881 11.1453 13.6285 10.8985 13.3314 10.5857C13.0277 10.283 12.7869 9.92326 12.6228 9.52714C12.4587 9.13101 12.3746 8.70635 12.3752 8.27758V0.202064L12.3813 0.214245Z" fill="#1E283C"/>
	<path d="M35.3533 -0.169434C35.3714 -0.169452 35.3893 -0.165796 35.406 -0.158685C35.4227 -0.151574 35.4377 -0.141156 35.4502 -0.128063C35.4628 -0.114969 35.4725 -0.0994708 35.4789 -0.0825057C35.4852 -0.0655406 35.4881 -0.0474607 35.4873 -0.0293602V0.579653C35.4873 0.779938 35.4077 0.97202 35.2661 1.11364C35.1245 1.25527 34.9324 1.33483 34.7321 1.33483H27.0829C26.9808 1.33483 26.8797 1.35503 26.7855 1.39428C26.6912 1.43353 26.6057 1.49105 26.5338 1.56352C26.4619 1.63598 26.4051 1.72197 26.3666 1.81651C26.328 1.91105 26.3086 2.01228 26.3094 2.11437V4.92801H31.6688C31.7705 4.92801 31.8681 4.96843 31.9401 5.04038C32.012 5.11234 32.0524 5.20993 32.0524 5.31169V6.06077C32.0508 6.16147 32.0097 6.2575 31.9379 6.32815C31.8661 6.39879 31.7695 6.43837 31.6688 6.43836H26.3094V9.252C26.3078 9.35488 26.3266 9.45706 26.3647 9.55265C26.4027 9.64824 26.4594 9.73535 26.5313 9.80895C26.6032 9.88255 26.6889 9.94119 26.7836 9.98148C26.8783 10.0218 26.98 10.0429 27.0829 10.0437H34.7504C34.8498 10.0429 34.9483 10.0619 35.0403 10.0996C35.1323 10.1372 35.2159 10.1928 35.2862 10.2631C35.3564 10.3334 35.412 10.417 35.4497 10.5089C35.4874 10.6009 35.5063 10.6995 35.5055 10.7989V11.4079C35.5055 11.4434 35.4914 11.4775 35.4663 11.5026C35.4412 11.5278 35.4071 11.5419 35.3716 11.5419H27.0829C26.7834 11.542 26.4868 11.4823 26.2107 11.3662C25.9346 11.2501 25.6845 11.08 25.4751 10.8659C25.2627 10.6542 25.0942 10.4027 24.9792 10.1257C24.8643 9.84879 24.8051 9.55186 24.8052 9.252V2.12046C24.8061 1.51325 25.0469 0.930989 25.4751 0.500481C25.6856 0.288264 25.9361 0.119814 26.212 0.00483793C26.488 -0.110138 26.7839 -0.169367 27.0829 -0.169434H35.3533Z" fill="#1E283C"/>
	<path d="M38.654 8.27149C38.657 8.73476 38.8408 9.17853 39.1661 9.50838C39.4914 9.83824 39.9326 10.0281 40.3957 10.0376H47.4603C47.56 10.0376 47.6587 10.0574 47.7507 10.0957C47.8427 10.134 47.9262 10.1902 47.9964 10.261C48.0667 10.3317 48.1221 10.4157 48.1597 10.508C48.1973 10.6004 48.2163 10.6992 48.2155 10.7989V11.4079C48.2155 11.4434 48.2014 11.4775 48.1762 11.5026C48.1511 11.5278 48.117 11.5419 48.0815 11.5419H40.4384C39.5699 11.5387 38.7381 11.1914 38.1251 10.5762C37.5121 9.9609 37.168 9.1278 37.168 8.25931V3.11315C37.1681 2.24385 37.5118 1.40983 38.1241 0.792809C38.4273 0.487589 38.7878 0.245416 39.185 0.0802632C39.5822 -0.0848899 40.0082 -0.169754 40.4384 -0.169433H48.0876C48.1231 -0.169433 48.1572 -0.155316 48.1823 -0.13019C48.2074 -0.105063 48.2216 -0.0709841 48.2216 -0.0354496V0.573564C48.2216 0.773849 48.142 0.965931 48.0004 1.10755C47.8588 1.24918 47.6667 1.32874 47.4664 1.32874H40.4018C39.9344 1.33674 39.489 1.52846 39.1619 1.86241C38.8348 2.19636 38.6523 2.64568 38.654 3.11315V8.27149Z" fill="#1E283C"/>
	<path d="M54.86 11.5845C54.8239 11.583 54.7898 11.5675 54.7648 11.5414C54.7399 11.5153 54.7259 11.4806 54.726 11.4445V1.47493C54.726 1.45681 54.7223 1.43887 54.7152 1.42221C54.7081 1.40554 54.6977 1.39049 54.6846 1.37797C54.6715 1.36544 54.656 1.35571 54.639 1.34934C54.6221 1.34298 54.604 1.34012 54.5859 1.34095H50.6578C50.4575 1.34095 50.2654 1.26138 50.1238 1.11976C49.9822 0.978137 49.9026 0.786055 49.9026 0.58577V-0.0232441C49.9026 -0.0587785 49.9167 -0.0928575 49.9418 -0.117984C49.967 -0.143111 50.001 -0.157227 50.0366 -0.157227H60.9379C60.9734 -0.157227 61.0075 -0.143111 61.0326 -0.117984C61.0578 -0.0928575 61.0719 -0.0587785 61.0719 -0.0232441V0.58577C61.0719 0.786055 60.9923 0.978137 60.8507 1.11976C60.7091 1.26138 60.517 1.34095 60.3167 1.34095H56.3703C56.3348 1.34095 56.3007 1.35506 56.2756 1.38019C56.2504 1.40532 56.2363 1.43939 56.2363 1.47493V11.1704C56.2348 11.2707 56.1947 11.3665 56.1244 11.4379C56.0541 11.5094 55.9589 11.551 55.8587 11.5541H55.0975C55.0183 11.5541 54.9391 11.5541 54.86 11.5541V11.5845Z" fill="#1E283C"/>
	<path d="M63.1242 11.5845H62.8867C62.8506 11.583 62.8165 11.5675 62.7915 11.5414C62.7666 11.5153 62.7527 11.4806 62.7527 11.4444V-0.0354499C62.7527 -0.0709843 62.7668 -0.105063 62.7919 -0.13019C62.817 -0.155317 62.8511 -0.169433 62.8867 -0.169433H71.76C72.0651 -0.169665 72.3673 -0.108906 72.6486 0.00927466C72.9299 0.127455 73.1848 0.300674 73.3982 0.518752C73.8346 0.954757 74.08 1.54622 74.0803 2.16309V5.09853C74.0771 5.6859 73.8518 6.2503 73.4496 6.67843C73.0475 7.10656 72.4983 7.36672 71.9122 7.40669L74.8538 11.3226C74.8694 11.3429 74.8791 11.367 74.882 11.3923C74.8849 11.4177 74.8807 11.4434 74.8701 11.4666C74.8594 11.4898 74.8426 11.5096 74.8215 11.524C74.8004 11.5383 74.7757 11.5466 74.7502 11.548H73.3251C73.2639 11.5478 73.2037 11.5327 73.1496 11.5041C73.0954 11.4755 73.0491 11.4341 73.0146 11.3835L70.0182 7.42496H64.263V11.1704C64.2615 11.2706 64.2214 11.3664 64.1511 11.4379C64.0808 11.5093 63.9856 11.551 63.8854 11.5541L63.1242 11.5845ZM64.263 5.79281C64.263 5.82892 64.2769 5.86366 64.3019 5.88976C64.3268 5.91586 64.3609 5.93131 64.397 5.93288H71.76C71.8723 5.93704 71.9844 5.9181 72.0891 5.87725C72.1939 5.8364 72.2891 5.77449 72.369 5.69536C72.4431 5.62351 72.5019 5.53732 72.5417 5.44205C72.5815 5.34678 72.6015 5.2444 72.6004 5.14116V2.17527C72.6053 2.06282 72.5867 1.95059 72.5458 1.84574C72.5049 1.74088 72.4426 1.64569 72.3629 1.56625C72.2199 1.42418 72.0284 1.3415 71.827 1.33483H64.4031C64.368 1.3347 64.3341 1.34777 64.3081 1.37146C64.2822 1.39515 64.2661 1.42772 64.263 1.46272V5.72581V5.79281Z" fill="#1E283C"/>
	<path d="M89.068 10.5918C88.764 10.8954 88.4031 11.1361 88.006 11.3002C87.6089 11.4642 87.1834 11.5484 86.7537 11.548H79.8353C79.4062 11.5488 78.981 11.4649 78.5843 11.3013C78.1875 11.1376 77.827 10.8972 77.5232 10.594C77.2194 10.2908 76.9784 9.93072 76.814 9.53428C76.6496 9.13784 76.5649 8.71286 76.5649 8.28368V3.11315C76.5645 2.68206 76.6493 2.25513 76.8144 1.85691C76.9795 1.4587 77.2218 1.09707 77.5272 0.792814C77.8288 0.487233 78.1882 0.244765 78.5845 0.0795579C78.9808 -0.0856496 79.406 -0.17029 79.8353 -0.169427H86.7659C87.1953 -0.17029 87.6205 -0.0856496 88.0168 0.0795579C88.4131 0.244765 88.7725 0.487233 89.0741 0.792814C89.3795 1.09707 89.6217 1.4587 89.7869 1.85691C89.952 2.25513 90.0368 2.68206 90.0363 3.11315V8.28368C90.0358 8.71282 89.9506 9.13764 89.7855 9.53375C89.6203 9.92985 89.3786 10.2894 89.0741 10.5918H89.068ZM87.9839 1.84032C87.6499 1.50982 87.1993 1.32389 86.7294 1.32266H79.8293C79.5963 1.32185 79.3655 1.36714 79.1501 1.45592C78.9347 1.5447 78.739 1.67521 78.5743 1.83993C78.4096 2.00466 78.2791 2.20035 78.1903 2.41573C78.1015 2.63111 78.0562 2.86193 78.057 3.09488V8.26541C78.0635 8.72472 78.2519 9.16273 78.5808 9.48343C78.9151 9.81282 79.366 9.99671 79.8353 9.995H86.7659C87.2371 9.99699 87.69 9.81318 88.0266 9.48343C88.3516 9.1606 88.5374 8.72344 88.5442 8.26541V3.11315C88.5405 2.87435 88.4889 2.63871 88.3927 2.42012C88.2965 2.20152 88.1575 2.00439 87.9839 1.84032Z" fill="#1E283C"/>
	<path d="M93.1972 8.27149C93.2002 8.73476 93.384 9.17853 93.7093 9.50838C94.0346 9.83824 94.4758 10.0281 94.9389 10.0376H101.991C102.091 10.0376 102.19 10.0574 102.282 10.0957C102.374 10.134 102.457 10.1902 102.527 10.261C102.598 10.3317 102.653 10.4157 102.691 10.508C102.728 10.6004 102.747 10.6992 102.746 10.7989V11.4079C102.746 11.4434 102.732 11.4775 102.707 11.5026C102.682 11.5278 102.648 11.5419 102.613 11.5419H94.9755C94.107 11.5387 93.2752 11.1914 92.6622 10.5762C92.0492 9.9609 91.7051 9.1278 91.7051 8.25931V3.11315C91.7052 2.24385 92.0489 1.40983 92.6612 0.792809C92.9644 0.487589 93.3249 0.245416 93.7221 0.0802632C94.1193 -0.0848899 94.5453 -0.169754 94.9755 -0.169433H102.6C102.636 -0.169433 102.67 -0.155316 102.695 -0.13019C102.72 -0.105063 102.734 -0.0709841 102.734 -0.0354496V0.573564C102.736 0.672738 102.718 0.771259 102.682 0.863499C102.645 0.955739 102.591 1.03989 102.522 1.11115C102.453 1.18241 102.37 1.23938 102.279 1.2788C102.188 1.31822 102.09 1.33933 101.991 1.34092H94.9268C94.4703 1.35519 94.0358 1.53987 93.7087 1.85858C93.5431 2.02293 93.4117 2.21836 93.3218 2.43365C93.2319 2.64894 93.1854 2.87985 93.185 3.11315V8.27149H93.1972Z" fill="#1E283C"/>
	<path d="M104.464 11.0424C104.442 11.1 104.434 11.1622 104.442 11.2234C104.45 11.2846 104.472 11.3429 104.508 11.3934C104.543 11.4439 104.591 11.4849 104.645 11.5129C104.7 11.5409 104.761 11.555 104.823 11.5539H105.81C105.835 11.5529 105.86 11.5443 105.881 11.5291C105.901 11.5139 105.917 11.4928 105.925 11.4687L107.113 8.39315H113.812L115.03 11.4382C115.039 11.465 115.056 11.4882 115.079 11.5046C115.102 11.521 115.13 11.5297 115.158 11.5296H116.108C116.17 11.5302 116.231 11.5159 116.286 11.4879C116.341 11.4599 116.388 11.4191 116.424 11.3689C116.46 11.3187 116.483 11.2606 116.492 11.1995C116.5 11.1384 116.494 11.0762 116.474 11.018L112.71 1.41385C112.621 1.19536 112.502 0.990371 112.357 0.80484C112.216 0.614547 112.05 0.444463 111.863 0.299359C111.666 0.152141 111.446 0.0389258 111.212 -0.0355975C110.972 -0.113993 110.721 -0.15307 110.469 -0.15131C110.22 -0.152504 109.974 -0.113426 109.738 -0.0355975C109.502 0.0367483 109.28 0.147891 109.08 0.293269C108.9 0.441904 108.739 0.611613 108.599 0.798751C108.465 0.98958 108.351 1.19365 108.258 1.40776L104.482 11.0363L104.464 11.0424ZM107.704 6.88279L109.634 1.96197C109.707 1.77112 109.831 1.60442 109.994 1.48085C110.132 1.37849 110.3 1.32324 110.472 1.32324C110.644 1.32324 110.811 1.37849 110.95 1.48085C111.109 1.60253 111.229 1.76746 111.297 1.95588L113.227 6.88279H107.704Z" fill="#1E283C"/>
	<path d="M139.921 11.5419H131.7C131.664 11.5419 131.63 11.5278 131.605 11.5027C131.58 11.4775 131.566 11.4435 131.566 11.4079V10.7989C131.565 10.6992 131.584 10.6004 131.621 10.5081C131.659 10.4157 131.714 10.3318 131.785 10.261C131.855 10.1902 131.938 10.134 132.03 10.0957C132.122 10.0574 132.221 10.0377 132.321 10.0377H139.921C140.208 10.051 140.488 9.9552 140.707 9.76969C140.797 9.68325 140.867 9.57902 140.915 9.46366C140.962 9.3483 140.984 9.22436 140.981 9.09977V8.18625C140.981 7.37018 140.287 7.19356 139.897 7.08394L134.324 5.80501C133.773 5.7056 133.239 5.53144 132.735 5.28735C132.57 5.20694 132.413 5.1111 132.266 5.00112C132.125 4.89304 131.999 4.7683 131.888 4.62962C131.619 4.30169 131.473 3.89045 131.474 3.4664V2.40672C131.466 2.0704 131.522 1.7356 131.639 1.42012C131.755 1.11303 131.933 0.833173 132.162 0.597949C132.382 0.36636 132.645 0.180131 132.936 0.0498374C133.224 -0.0834207 133.538 -0.153994 133.855 -0.157227H141.9C141.936 -0.157227 141.97 -0.143111 141.995 -0.117984C142.02 -0.0928575 142.034 -0.0587786 142.034 -0.0232441V0.58577C142.035 0.685452 142.016 0.784307 141.979 0.876633C141.941 0.96896 141.886 1.05293 141.815 1.1237C141.745 1.19447 141.662 1.25064 141.57 1.28897C141.478 1.32731 141.379 1.34704 141.279 1.34704H133.855C133.741 1.34903 133.627 1.37436 133.523 1.42147C133.418 1.46858 133.324 1.5365 133.246 1.62109C133.069 1.8419 132.974 2.11754 132.978 2.40063V3.1558C132.978 4.0206 133.831 4.13632 134.635 4.3312L140.165 5.58577C140.577 5.65816 140.972 5.80247 141.334 6.01208C141.648 6.19601 141.916 6.4478 142.12 6.74898C142.35 7.06421 142.478 7.44272 142.485 7.83303V9.08759C142.483 9.41994 142.417 9.74879 142.29 10.0559C142.163 10.3521 141.974 10.6178 141.736 10.8355C141.493 11.0672 141.206 11.2484 140.893 11.3687C140.579 11.4889 140.245 11.5457 139.909 11.5358L139.921 11.5419Z" fill="#1E283C"/>
	<path d="M118.344 11.5845H118.106C118.07 11.583 118.036 11.5675 118.011 11.5414C117.986 11.5153 117.972 11.4806 117.972 11.4444V-0.0354499C117.972 -0.0530448 117.976 -0.0704674 117.983 -0.0867229C117.989 -0.102978 117.999 -0.117749 118.012 -0.13019C118.024 -0.142631 118.039 -0.152501 118.055 -0.159234C118.071 -0.165967 118.089 -0.169433 118.106 -0.169433H126.961C127.267 -0.169665 127.569 -0.108906 127.85 0.00927466C128.131 0.127455 128.386 0.300674 128.6 0.518752C129.036 0.954757 129.281 1.54622 129.282 2.16309V5.09853C129.278 5.68689 129.052 6.25211 128.649 6.6804C128.245 7.10868 127.695 7.3682 127.108 7.40669L130.055 11.3226C130.071 11.3433 130.081 11.3679 130.083 11.3938C130.086 11.4197 130.081 11.4458 130.07 11.4692C130.059 11.4926 130.041 11.5123 130.019 11.5263C129.997 11.5402 129.972 11.5477 129.946 11.548H128.545C128.484 11.5478 128.423 11.5327 128.369 11.5041C128.315 11.4755 128.269 11.4341 128.234 11.3835L125.238 7.42496H119.483V11.1704C119.481 11.2706 119.441 11.3664 119.371 11.4379C119.301 11.5093 119.205 11.551 119.105 11.5541L118.344 11.5845ZM119.483 5.79281C119.482 5.81091 119.485 5.82899 119.491 5.84595C119.498 5.86292 119.507 5.87841 119.52 5.89151C119.532 5.9046 119.547 5.91502 119.564 5.92213C119.581 5.92924 119.599 5.9329 119.617 5.93288H126.961C127.074 5.93704 127.186 5.9181 127.291 5.87725C127.395 5.8364 127.491 5.77449 127.57 5.69536C127.645 5.62351 127.703 5.53732 127.743 5.44205C127.783 5.34678 127.803 5.2444 127.802 5.14116V2.17527C127.805 2.06299 127.786 1.95118 127.745 1.84653C127.704 1.74188 127.643 1.64655 127.564 1.56625C127.421 1.42518 127.23 1.34268 127.028 1.33483H119.653C119.618 1.3347 119.584 1.34777 119.558 1.37146C119.532 1.39515 119.516 1.42772 119.513 1.46272V5.72581L119.483 5.79281Z" fill="#1E283C"/>
</svg>
