<svg width="28" height="28" viewBox="0 0 28 28" fill="none" xmlns="http://www.w3.org/2000/svg">
<path d="M6.61383 12.46H14.3386C14.4672 12.4615 14.5901 12.5136 14.6805 12.6051C14.771 12.6966 14.8217 12.8201 14.8217 12.9488V15.0462C14.8202 15.1739 14.7689 15.296 14.6786 15.3862C14.5883 15.4765 14.4662 15.5279 14.3386 15.5294H6.61383C6.48517 15.5294 6.36168 15.4787 6.27017 15.3882C6.17866 15.2978 6.1265 15.1749 6.125 15.0462V12.9602C6.12648 12.831 6.17845 12.7075 6.26981 12.6161C6.36116 12.5248 6.48465 12.4728 6.61383 12.4713V12.46ZM7.03446 16.8538C7.03174 16.8292 7.03174 16.8045 7.03446 16.7799C7.04545 16.7449 7.06743 16.7144 7.09712 16.6929C7.12681 16.6714 7.16264 16.6601 7.1993 16.6605C7.22747 16.6552 7.25639 16.6552 7.28456 16.6605L7.62561 16.8936L9.49568 18.127C9.7435 18.2902 10.0346 18.3754 10.3313 18.3715H18.5562C18.9568 18.3744 19.3402 18.5345 19.6241 18.8172C19.9079 19.1 20.0694 19.4828 20.0738 19.8834V21.2647C20.0739 21.3104 20.0561 21.3544 20.0243 21.3873C19.9924 21.4202 19.9491 21.4394 19.9033 21.4409C16.7884 21.4409 13.6508 21.4409 10.5586 21.4409C10.2605 21.4365 9.96943 21.35 9.71737 21.1908L7.31867 19.6049C7.23791 19.5637 7.16926 19.5022 7.11943 19.4265C7.06961 19.3508 7.04032 19.2634 7.03446 19.1729V16.8538ZM7.03446 11.1356C7.0313 11.162 7.0313 11.1887 7.03446 11.2151C7.04545 11.2501 7.06743 11.2806 7.09712 11.3021C7.12681 11.3236 7.16264 11.335 7.1993 11.3345C7.22719 11.3423 7.25667 11.3423 7.28456 11.3345L7.62561 11.1071L9.49568 9.87369C9.74886 9.69689 10.0509 9.6035 10.3597 9.60654H18.5562C18.9563 9.60213 19.339 9.4416 19.6225 9.15916C19.906 8.87671 20.0679 8.4947 20.0738 8.09456V6.70763C20.0738 6.66241 20.0559 6.61903 20.0239 6.58705C19.9919 6.55508 19.9485 6.53711 19.9033 6.53711C16.7884 6.53711 13.6508 6.53711 10.5586 6.53711C10.2601 6.53874 9.96828 6.62551 9.71737 6.78721L7.31867 8.37308C7.23791 8.41428 7.16926 8.47576 7.11943 8.55149C7.06961 8.62722 7.04032 8.71461 7.03446 8.80508V11.1356Z" fill="#1E283C"/>
<path d="M13.9947 1C16.5663 0.998957 19.0805 1.76064 21.2191 3.1887C23.3578 4.61675 25.0248 6.64702 26.0094 9.02268C26.994 11.3983 27.2519 14.0126 26.7505 16.5349C26.249 19.0571 25.0108 21.374 23.1924 23.1924C21.374 25.0108 19.0571 26.249 16.5349 26.7505C14.0126 27.2519 11.3983 26.994 9.02267 26.0094C6.64702 25.0248 4.61675 23.3578 3.1887 21.2191C1.76064 19.0805 0.998957 16.5663 1 13.9947C1.0014 10.5487 2.37093 7.24429 4.80761 4.80761C7.24429 2.37093 10.5487 1.0014 13.9947 1Z" stroke="#1E283C" stroke-width="2" stroke-miterlimit="22.93"/>
</svg>
